<svg width="201" height="70" viewBox="0 0 201 70" fill="none" xmlns="http://www.w3.org/2000/svg">
<path d="M44.6696 58.9248C58.1032 53.3603 64.4814 37.9568 58.9156 24.5201C53.3499 11.0835 37.9478 4.70184 24.5142 10.2664C11.0805 15.8309 4.70237 31.2344 10.2681 44.671C15.8339 58.1077 31.236 64.4893 44.6696 58.9248Z" fill="#20282D"/>
<mask id="mask0_975_585" style="mask-type:luminance" maskUnits="userSpaceOnUse" x="8" y="8" width="54" height="54">
<path d="M44.7256 59.0595C58.2337 53.4642 64.6472 37.9753 59.0506 24.4642C53.454 10.9531 37.9666 4.53608 24.4585 10.1314C10.9505 15.7268 4.53695 31.2156 10.1336 44.7267C15.7302 58.2379 31.2176 64.6549 44.7256 59.0595Z" fill="white"/>
</mask>
<g mask="url(#mask0_975_585)">
<path fill-rule="evenodd" clip-rule="evenodd" d="M48.4208 31.1795L31.7847 47.8156L29.958 45.9948L21.6784 37.7094L7.33158 52.0562L3.68408 48.4028L21.6784 30.4144L23.4992 32.2352L31.7847 40.5206L44.7674 27.532H32.7811V22.3721H53.5748V43.1717H48.4208V31.1795Z" fill="#F2F2F2"/>
</g>
<path d="M77.5137 39V11H83.3137V39H77.5137ZM88.0521 39V18.16H93.5321V19.88C95.1054 18.4667 97.0521 17.76 99.3721 17.76C100.999 17.76 102.425 18.12 103.652 18.84C104.905 19.5333 105.879 20.5067 106.572 21.76C107.265 22.9867 107.612 24.4267 107.612 26.08V39H102.132V26.88C102.132 25.52 101.745 24.4533 100.972 23.68C100.199 22.88 99.1454 22.48 97.8121 22.48C96.8788 22.48 96.0521 22.6667 95.3321 23.04C94.6121 23.3867 94.0121 23.8933 93.5321 24.56V39H88.0521ZM117.39 39L108.47 18.16H114.43L120.15 32.04L125.83 18.16H131.67L122.71 39H117.39ZM143.447 39.4C141.367 39.4 139.474 38.92 137.767 37.96C136.087 37 134.754 35.7067 133.767 34.08C132.781 32.4533 132.287 30.6267 132.287 28.6C132.287 26.5733 132.754 24.7467 133.687 23.12C134.647 21.4933 135.941 20.2 137.567 19.24C139.194 18.28 141.007 17.8 143.007 17.8C145.007 17.8 146.781 18.2933 148.327 19.28C149.874 20.2667 151.087 21.6 151.967 23.28C152.874 24.96 153.327 26.8667 153.327 29V30.44H137.887C138.127 31.2667 138.514 32.0133 139.047 32.68C139.607 33.3467 140.287 33.8667 141.087 34.24C141.914 34.6133 142.794 34.8 143.727 34.8C144.661 34.8 145.514 34.6533 146.287 34.36C147.087 34.0667 147.767 33.6533 148.327 33.12L151.927 36.4C150.647 37.44 149.327 38.2 147.967 38.68C146.634 39.16 145.127 39.4 143.447 39.4ZM137.807 26.52H147.927C147.741 25.6933 147.394 24.9733 146.887 24.36C146.407 23.72 145.821 23.2267 145.127 22.88C144.461 22.5067 143.714 22.32 142.887 22.32C142.034 22.32 141.261 22.4933 140.567 22.84C139.874 23.1867 139.287 23.68 138.807 24.32C138.354 24.9333 138.021 25.6667 137.807 26.52ZM156.685 39V18.16H162.165V19.88C163.738 18.4667 165.685 17.76 168.005 17.76C169.632 17.76 171.058 18.12 172.285 18.84C173.538 19.5333 174.512 20.5067 175.205 21.76C175.898 22.9867 176.245 24.4267 176.245 26.08V39H170.765V26.88C170.765 25.52 170.378 24.4533 169.605 23.68C168.832 22.88 167.778 22.48 166.445 22.48C165.512 22.48 164.685 22.6667 163.965 23.04C163.245 23.3867 162.645 23.8933 162.165 24.56V39H156.685ZM187.036 39.36C185.543 39.36 184.223 39.0933 183.076 38.56C181.929 38 181.036 37.24 180.396 36.28C179.756 35.32 179.436 34.2133 179.436 32.96C179.436 30.96 180.183 29.4133 181.676 28.32C183.196 27.2 185.276 26.64 187.916 26.64C189.729 26.64 191.436 26.92 193.036 27.48V25.96C193.036 24.76 192.663 23.8533 191.916 23.24C191.169 22.6267 190.076 22.32 188.636 22.32C187.756 22.32 186.809 22.4667 185.796 22.76C184.783 23.0267 183.609 23.4533 182.276 24.04L180.276 20C181.929 19.2533 183.503 18.6933 184.996 18.32C186.516 17.9467 188.036 17.76 189.556 17.76C192.356 17.76 194.529 18.44 196.076 19.8C197.649 21.1333 198.436 23.0267 198.436 25.48V39H193.036V37.52C192.183 38.16 191.263 38.6267 190.276 38.92C189.289 39.2133 188.209 39.36 187.036 39.36ZM184.636 32.84C184.636 33.64 184.983 34.28 185.676 34.76C186.369 35.2133 187.289 35.44 188.436 35.44C189.343 35.44 190.183 35.3333 190.956 35.12C191.729 34.88 192.423 34.5333 193.036 34.08V31.04C192.369 30.7733 191.676 30.5733 190.956 30.44C190.236 30.3067 189.463 30.24 188.636 30.24C187.383 30.24 186.396 30.48 185.676 30.96C184.983 31.4133 184.636 32.04 184.636 32.84Z" fill="white"/>
<path d="M76.0942 58V47.15H80.7907C81.5037 47.15 82.1237 47.2688 82.6507 47.5065C83.1777 47.7442 83.5858 48.08 83.8752 48.514C84.1645 48.9377 84.3092 49.4388 84.3092 50.0175C84.3092 50.5445 84.1748 51.0095 83.9062 51.4125C83.6375 51.8155 83.2603 52.1358 82.7747 52.3735C83.3843 52.5905 83.8597 52.9212 84.2007 53.3655C84.552 53.7995 84.7277 54.311 84.7277 54.9C84.7277 55.5303 84.5727 56.078 84.2627 56.543C83.9527 57.008 83.5187 57.3697 82.9607 57.628C82.4027 57.876 81.7465 58 80.9922 58H76.0942ZM77.7217 51.7535H80.6977C81.3073 51.7535 81.793 51.6088 82.1547 51.3195C82.5163 51.0302 82.6972 50.6375 82.6972 50.1415C82.6972 49.6455 82.5163 49.2528 82.1547 48.9635C81.793 48.6742 81.3073 48.5295 80.6977 48.5295H77.7217V51.7535ZM77.7217 56.6205H80.8682C81.5502 56.6205 82.0875 56.4603 82.4802 56.14C82.8832 55.8197 83.0847 55.3857 83.0847 54.838C83.0847 54.3007 82.8832 53.8718 82.4802 53.5515C82.0875 53.2208 81.5502 53.0555 80.8682 53.0555H77.7217V56.6205ZM89.2092 58.155C88.5995 58.155 88.0622 58.0258 87.5972 57.7675C87.1322 57.5092 86.7705 57.1475 86.5122 56.6825C86.2539 56.2072 86.1247 55.6647 86.1247 55.055V50.1105H87.6592V54.7915C87.6592 55.4115 87.8349 55.9023 88.1862 56.264C88.5479 56.6257 89.0284 56.8065 89.6277 56.8065C90.0514 56.8065 90.4285 56.7187 90.7592 56.543C91.0899 56.357 91.3585 56.0987 91.5652 55.768V50.1105H93.1152V58H91.5652V57.194C90.9555 57.8347 90.1702 58.155 89.2092 58.155ZM97.6626 58.155C96.9806 58.155 96.34 58.0568 95.7406 57.8605C95.1516 57.6538 94.6401 57.3645 94.2061 56.9925L95.0586 55.9695C95.4616 56.2898 95.875 56.5378 96.2986 56.7135C96.7326 56.8788 97.1718 56.9615 97.6161 56.9615C98.1741 56.9615 98.6288 56.853 98.9801 56.636C99.3315 56.419 99.5071 56.1348 99.5071 55.7835C99.5071 55.4942 99.4038 55.2668 99.1971 55.1015C98.9905 54.9362 98.6701 54.8225 98.2361 54.7605L96.8101 54.559C96.0248 54.4453 95.4358 54.2025 95.0431 53.8305C94.6505 53.4585 94.4541 52.9625 94.4541 52.3425C94.4541 51.8672 94.5833 51.4538 94.8416 51.1025C95.1 50.7408 95.4616 50.4618 95.9266 50.2655C96.3916 50.0588 96.9341 49.9555 97.5541 49.9555C98.1225 49.9555 98.6701 50.0382 99.1971 50.2035C99.7241 50.3688 100.23 50.6272 100.716 50.9785L99.9256 52.0015C99.4916 51.7122 99.068 51.5003 98.6546 51.366C98.2516 51.2317 97.8435 51.1645 97.4301 51.1645C96.9548 51.1645 96.5725 51.2678 96.2831 51.4745C95.9938 51.6708 95.8491 51.9292 95.8491 52.2495C95.8491 52.5388 95.9473 52.7662 96.1436 52.9315C96.3503 53.0865 96.6861 53.195 97.1511 53.257L98.5771 53.4585C99.3625 53.5722 99.9566 53.815 100.36 54.187C100.763 54.5487 100.964 55.0395 100.964 55.6595C100.964 56.1348 100.819 56.5637 100.53 56.946C100.241 57.318 99.8481 57.6125 99.3521 57.8295C98.8561 58.0465 98.293 58.155 97.6626 58.155ZM102.155 58V50.1105H103.705V58H102.155ZM102.93 48.8395C102.672 48.8395 102.45 48.7465 102.264 48.5605C102.078 48.3642 101.985 48.1368 101.985 47.8785C101.985 47.6098 102.078 47.3877 102.264 47.212C102.45 47.026 102.672 46.933 102.93 46.933C103.199 46.933 103.426 47.026 103.612 47.212C103.798 47.3877 103.891 47.6098 103.891 47.8785C103.891 48.1368 103.798 48.3642 103.612 48.5605C103.426 48.7465 103.199 48.8395 102.93 48.8395ZM105.531 58V50.1105H107.081V50.9165C107.69 50.2758 108.481 49.9555 109.452 49.9555C110.062 49.9555 110.594 50.0847 111.049 50.343C111.514 50.6013 111.875 50.963 112.134 51.428C112.402 51.893 112.537 52.4303 112.537 53.04V58H110.987V53.3035C110.987 52.6835 110.811 52.1978 110.46 51.8465C110.119 51.4848 109.638 51.304 109.018 51.304C108.605 51.304 108.233 51.3918 107.902 51.5675C107.572 51.7432 107.298 51.9963 107.081 52.327V58H105.531ZM118.107 58.1395C117.332 58.1395 116.629 57.9587 115.999 57.597C115.379 57.2353 114.883 56.7445 114.511 56.1245C114.149 55.5045 113.969 54.8122 113.969 54.0475C113.969 53.2932 114.144 52.6112 114.496 52.0015C114.847 51.3815 115.322 50.8907 115.922 50.529C116.521 50.157 117.187 49.971 117.921 49.971C118.655 49.971 119.306 50.157 119.874 50.529C120.442 50.8907 120.892 51.3867 121.223 52.017C121.564 52.637 121.734 53.3397 121.734 54.125V54.559H115.519C115.601 54.993 115.761 55.3805 115.999 55.7215C116.247 56.0625 116.557 56.3312 116.929 56.5275C117.311 56.7238 117.725 56.822 118.169 56.822C118.551 56.822 118.918 56.7652 119.27 56.6515C119.631 56.5275 119.931 56.3518 120.169 56.1245L121.161 57.101C120.696 57.4523 120.215 57.7158 119.719 57.8915C119.233 58.0568 118.696 58.1395 118.107 58.1395ZM115.534 53.3965H120.2C120.138 52.9832 119.993 52.6215 119.766 52.3115C119.549 51.9912 119.275 51.7432 118.944 51.5675C118.624 51.3815 118.272 51.2885 117.89 51.2885C117.497 51.2885 117.136 51.3763 116.805 51.552C116.474 51.7277 116.195 51.9757 115.968 52.296C115.751 52.606 115.606 52.9728 115.534 53.3965ZM125.999 58.155C125.317 58.155 124.676 58.0568 124.077 57.8605C123.488 57.6538 122.976 57.3645 122.542 56.9925L123.395 55.9695C123.798 56.2898 124.211 56.5378 124.635 56.7135C125.069 56.8788 125.508 56.9615 125.952 56.9615C126.51 56.9615 126.965 56.853 127.316 56.636C127.667 56.419 127.843 56.1348 127.843 55.7835C127.843 55.4942 127.74 55.2668 127.533 55.1015C127.326 54.9362 127.006 54.8225 126.572 54.7605L125.146 54.559C124.361 54.4453 123.772 54.2025 123.379 53.8305C122.986 53.4585 122.79 52.9625 122.79 52.3425C122.79 51.8672 122.919 51.4538 123.178 51.1025C123.436 50.7408 123.798 50.4618 124.263 50.2655C124.728 50.0588 125.27 49.9555 125.89 49.9555C126.458 49.9555 127.006 50.0382 127.533 50.2035C128.06 50.3688 128.566 50.6272 129.052 50.9785L128.262 52.0015C127.828 51.7122 127.404 51.5003 126.991 51.366C126.588 51.2317 126.179 51.1645 125.766 51.1645C125.291 51.1645 124.908 51.2678 124.619 51.4745C124.33 51.6708 124.185 51.9292 124.185 52.2495C124.185 52.5388 124.283 52.7662 124.48 52.9315C124.686 53.0865 125.022 53.195 125.487 53.257L126.913 53.4585C127.698 53.5722 128.293 53.815 128.696 54.187C129.099 54.5487 129.3 55.0395 129.3 55.6595C129.3 56.1348 129.155 56.5637 128.866 56.946C128.577 57.318 128.184 57.6125 127.688 57.8295C127.192 58.0465 126.629 58.155 125.999 58.155ZM133.204 58.155C132.522 58.155 131.881 58.0568 131.282 57.8605C130.693 57.6538 130.181 57.3645 129.747 56.9925L130.6 55.9695C131.003 56.2898 131.416 56.5378 131.84 56.7135C132.274 56.8788 132.713 56.9615 133.157 56.9615C133.715 56.9615 134.17 56.853 134.521 56.636C134.872 56.419 135.048 56.1348 135.048 55.7835C135.048 55.4942 134.945 55.2668 134.738 55.1015C134.531 54.9362 134.211 54.8225 133.777 54.7605L132.351 54.559C131.566 54.4453 130.977 54.2025 130.584 53.8305C130.191 53.4585 129.995 52.9625 129.995 52.3425C129.995 51.8672 130.124 51.4538 130.383 51.1025C130.641 50.7408 131.003 50.4618 131.468 50.2655C131.933 50.0588 132.475 49.9555 133.095 49.9555C133.663 49.9555 134.211 50.0382 134.738 50.2035C135.265 50.3688 135.771 50.6272 136.257 50.9785L135.467 52.0015C135.033 51.7122 134.609 51.5003 134.196 51.366C133.793 51.2317 133.384 51.1645 132.971 51.1645C132.496 51.1645 132.113 51.2678 131.824 51.4745C131.535 51.6708 131.39 51.9292 131.39 52.2495C131.39 52.5388 131.488 52.7662 131.685 52.9315C131.891 53.0865 132.227 53.195 132.692 53.257L134.118 53.4585C134.903 53.5722 135.498 53.815 135.901 54.187C136.304 54.5487 136.505 55.0395 136.505 55.6595C136.505 56.1348 136.36 56.5637 136.071 56.946C135.782 57.318 135.389 57.6125 134.893 57.8295C134.397 58.0465 133.834 58.155 133.204 58.155ZM144.795 58.155C143.927 58.155 143.09 57.9845 142.284 57.6435C141.478 57.3025 140.765 56.822 140.145 56.202L141.137 55.055C141.726 55.6337 142.325 56.0625 142.935 56.3415C143.555 56.6205 144.201 56.76 144.872 56.76C145.399 56.76 145.859 56.6877 146.252 56.543C146.655 56.388 146.965 56.171 147.182 55.892C147.399 55.613 147.507 55.2978 147.507 54.9465C147.507 54.4608 147.337 54.0888 146.996 53.8305C146.655 53.5722 146.092 53.3758 145.306 53.2415L143.493 52.947C142.501 52.7713 141.757 52.451 141.261 51.986C140.775 51.521 140.532 50.901 140.532 50.126C140.532 49.506 140.698 48.9635 141.028 48.4985C141.359 48.0232 141.824 47.6563 142.423 47.398C143.033 47.1397 143.736 47.0105 144.531 47.0105C145.317 47.0105 146.087 47.1397 146.841 47.398C147.606 47.646 148.293 48.0077 148.902 48.483L148.003 49.723C146.836 48.8343 145.653 48.39 144.454 48.39C143.979 48.39 143.565 48.4572 143.214 48.5915C142.863 48.7258 142.589 48.917 142.392 49.165C142.196 49.4027 142.098 49.6817 142.098 50.002C142.098 50.4463 142.248 50.7873 142.547 51.025C142.847 51.2523 143.343 51.4177 144.035 51.521L145.787 51.8155C146.934 52.0015 147.776 52.3373 148.313 52.823C148.851 53.3087 149.119 53.9752 149.119 54.8225C149.119 55.4838 148.939 56.0677 148.577 56.574C148.215 57.07 147.709 57.4575 147.058 57.7365C146.407 58.0155 145.653 58.155 144.795 58.155ZM154.344 58.155C153.579 58.155 152.882 57.9742 152.251 57.6125C151.631 57.2508 151.14 56.76 150.779 56.14C150.417 55.52 150.236 54.8277 150.236 54.063C150.236 53.2983 150.417 52.606 150.779 51.986C151.14 51.366 151.631 50.8752 152.251 50.5135C152.882 50.1415 153.579 49.9555 154.344 49.9555C155.119 49.9555 155.816 50.1415 156.436 50.5135C157.056 50.8752 157.547 51.366 157.909 51.986C158.27 52.606 158.451 53.2983 158.451 54.063C158.451 54.8277 158.27 55.52 157.909 56.14C157.547 56.76 157.056 57.2508 156.436 57.6125C155.816 57.9742 155.119 58.155 154.344 58.155ZM154.344 56.791C154.829 56.791 155.269 56.6722 155.661 56.4345C156.054 56.1865 156.364 55.8558 156.591 55.4425C156.819 55.0292 156.932 54.5642 156.932 54.0475C156.932 53.5412 156.813 53.0865 156.576 52.6835C156.348 52.2702 156.038 51.9395 155.646 51.6915C155.263 51.4435 154.829 51.3195 154.344 51.3195C153.858 51.3195 153.419 51.4435 153.026 51.6915C152.644 51.9395 152.334 52.2702 152.096 52.6835C151.869 53.0865 151.755 53.5412 151.755 54.0475C151.755 54.5642 151.869 55.0292 152.096 55.4425C152.324 55.8558 152.634 56.1865 153.026 56.4345C153.419 56.6722 153.858 56.791 154.344 56.791ZM159.917 58V47.15L161.467 46.8555V58H159.917ZM166.346 58.155C165.736 58.155 165.199 58.0258 164.734 57.7675C164.269 57.5092 163.907 57.1475 163.649 56.6825C163.391 56.2072 163.261 55.6647 163.261 55.055V50.1105H164.796V54.7915C164.796 55.4115 164.972 55.9023 165.323 56.264C165.685 56.6257 166.165 56.8065 166.764 56.8065C167.188 56.8065 167.565 56.7187 167.896 56.543C168.227 56.357 168.495 56.0987 168.702 55.768V50.1105H170.252V58H168.702V57.194C168.092 57.8347 167.307 58.155 166.346 58.155ZM175.466 58.1395C174.701 58.1395 174.117 57.9638 173.714 57.6125C173.311 57.2508 173.11 56.729 173.11 56.047V51.4125H171.436V50.1105H173.11V48.0955L174.644 47.7235V50.1105H176.969V51.4125H174.644V55.6905C174.644 56.0935 174.732 56.3828 174.908 56.5585C175.094 56.7238 175.394 56.8065 175.807 56.8065C176.024 56.8065 176.215 56.791 176.38 56.76C176.556 56.729 176.742 56.6825 176.938 56.6205V57.9225C176.732 57.9948 176.489 58.0465 176.21 58.0775C175.941 58.1188 175.693 58.1395 175.466 58.1395ZM178.111 58V50.1105H179.661V58H178.111ZM178.886 48.8395C178.628 48.8395 178.406 48.7465 178.22 48.5605C178.034 48.3642 177.941 48.1368 177.941 47.8785C177.941 47.6098 178.034 47.3877 178.22 47.212C178.406 47.026 178.628 46.933 178.886 46.933C179.155 46.933 179.382 47.026 179.568 47.212C179.754 47.3877 179.847 47.6098 179.847 47.8785C179.847 48.1368 179.754 48.3642 179.568 48.5605C179.382 48.7465 179.155 48.8395 178.886 48.8395ZM185.238 58.155C184.473 58.155 183.776 57.9742 183.145 57.6125C182.525 57.2508 182.034 56.76 181.673 56.14C181.311 55.52 181.13 54.8277 181.13 54.063C181.13 53.2983 181.311 52.606 181.673 51.986C182.034 51.366 182.525 50.8752 183.145 50.5135C183.776 50.1415 184.473 49.9555 185.238 49.9555C186.013 49.9555 186.71 50.1415 187.33 50.5135C187.95 50.8752 188.441 51.366 188.803 51.986C189.164 52.606 189.345 53.2983 189.345 54.063C189.345 54.8277 189.164 55.52 188.803 56.14C188.441 56.76 187.95 57.2508 187.33 57.6125C186.71 57.9742 186.013 58.155 185.238 58.155ZM185.238 56.791C185.723 56.791 186.163 56.6722 186.555 56.4345C186.948 56.1865 187.258 55.8558 187.485 55.4425C187.713 55.0292 187.826 54.5642 187.826 54.0475C187.826 53.5412 187.707 53.0865 187.47 52.6835C187.242 52.2702 186.932 51.9395 186.54 51.6915C186.157 51.4435 185.723 51.3195 185.238 51.3195C184.752 51.3195 184.313 51.4435 183.92 51.6915C183.538 51.9395 183.228 52.2702 182.99 52.6835C182.763 53.0865 182.649 53.5412 182.649 54.0475C182.649 54.5642 182.763 55.0292 182.99 55.4425C183.218 55.8558 183.528 56.1865 183.92 56.4345C184.313 56.6722 184.752 56.791 185.238 56.791ZM190.811 58V50.1105H192.361V50.9165C192.971 50.2758 193.761 49.9555 194.732 49.9555C195.342 49.9555 195.874 50.0847 196.329 50.343C196.794 50.6013 197.156 50.963 197.414 51.428C197.683 51.893 197.817 52.4303 197.817 53.04V58H196.267V53.3035C196.267 52.6835 196.091 52.1978 195.74 51.8465C195.399 51.4848 194.918 51.304 194.298 51.304C193.885 51.304 193.513 51.3918 193.182 51.5675C192.852 51.7432 192.578 51.9963 192.361 52.327V58H190.811Z" fill="white"/>
</svg>
