<svg width="201" height="70" viewBox="0 0 201 70" fill="none" xmlns="http://www.w3.org/2000/svg">
<path d="M44.6706 58.9243C58.1042 53.3598 64.4824 37.9563 58.9166 24.5197C53.3508 11.083 37.9488 4.70136 24.5152 10.2659C11.0815 15.8304 4.70335 31.2339 10.2691 44.6705C15.8349 58.1072 31.2369 64.4888 44.6706 58.9243Z" fill="#E04700"/>
<mask id="mask0_3025_509" style="mask-type:luminance" maskUnits="userSpaceOnUse" x="8" y="8" width="54" height="54">
<path d="M44.7256 59.0595C58.2337 53.4642 64.6472 37.9753 59.0506 24.4642C53.454 10.9531 37.9666 4.53608 24.4585 10.1314C10.9505 15.7268 4.53695 31.2156 10.1336 44.7267C15.7302 58.2379 31.2176 64.6549 44.7256 59.0595Z" fill="white"/>
</mask>
<g mask="url(#mask0_3025_509)">
<path fill-rule="evenodd" clip-rule="evenodd" d="M48.4204 31.1795L31.7842 47.8156L29.9575 45.9948L21.6779 37.7094L7.3311 52.0562L3.68359 48.4028L21.6779 30.4144L23.4987 32.2352L31.7842 40.5206L44.7669 27.532H32.7806V22.3721H53.5743V43.1717H48.4204V31.1795Z" fill="#F2F2F2"/>
</g>
<path d="M77.5122 39V11H83.3122V39H77.5122ZM88.0506 39V18.16H93.5306V19.88C95.104 18.4667 97.0506 17.76 99.3706 17.76C100.997 17.76 102.424 18.12 103.651 18.84C104.904 19.5333 105.877 20.5067 106.571 21.76C107.264 22.9867 107.611 24.4267 107.611 26.08V39H102.131V26.88C102.131 25.52 101.744 24.4533 100.971 23.68C100.197 22.88 99.144 22.48 97.8106 22.48C96.8773 22.48 96.0506 22.6667 95.3306 23.04C94.6106 23.3867 94.0106 23.8933 93.5306 24.56V39H88.0506ZM117.389 39L108.469 18.16H114.429L120.149 32.04L125.829 18.16H131.669L122.709 39H117.389ZM143.446 39.4C141.366 39.4 139.473 38.92 137.766 37.96C136.086 37 134.753 35.7067 133.766 34.08C132.779 32.4533 132.286 30.6267 132.286 28.6C132.286 26.5733 132.753 24.7467 133.686 23.12C134.646 21.4933 135.939 20.2 137.566 19.24C139.193 18.28 141.006 17.8 143.006 17.8C145.006 17.8 146.779 18.2933 148.326 19.28C149.873 20.2667 151.086 21.6 151.966 23.28C152.873 24.96 153.326 26.8667 153.326 29V30.44H137.886C138.126 31.2667 138.513 32.0133 139.046 32.68C139.606 33.3467 140.286 33.8667 141.086 34.24C141.913 34.6133 142.793 34.8 143.726 34.8C144.659 34.8 145.513 34.6533 146.286 34.36C147.086 34.0667 147.766 33.6533 148.326 33.12L151.926 36.4C150.646 37.44 149.326 38.2 147.966 38.68C146.633 39.16 145.126 39.4 143.446 39.4ZM137.806 26.52H147.926C147.739 25.6933 147.393 24.9733 146.886 24.36C146.406 23.72 145.819 23.2267 145.126 22.88C144.459 22.5067 143.713 22.32 142.886 22.32C142.033 22.32 141.259 22.4933 140.566 22.84C139.873 23.1867 139.286 23.68 138.806 24.32C138.353 24.9333 138.019 25.6667 137.806 26.52ZM156.683 39V18.16H162.163V19.88C163.737 18.4667 165.683 17.76 168.003 17.76C169.63 17.76 171.057 18.12 172.283 18.84C173.537 19.5333 174.51 20.5067 175.203 21.76C175.897 22.9867 176.243 24.4267 176.243 26.08V39H170.763V26.88C170.763 25.52 170.377 24.4533 169.603 23.68C168.83 22.88 167.777 22.48 166.443 22.48C165.51 22.48 164.683 22.6667 163.963 23.04C163.243 23.3867 162.643 23.8933 162.163 24.56V39H156.683ZM187.034 39.36C185.541 39.36 184.221 39.0933 183.074 38.56C181.928 38 181.034 37.24 180.394 36.28C179.754 35.32 179.434 34.2133 179.434 32.96C179.434 30.96 180.181 29.4133 181.674 28.32C183.194 27.2 185.274 26.64 187.914 26.64C189.728 26.64 191.434 26.92 193.034 27.48V25.96C193.034 24.76 192.661 23.8533 191.914 23.24C191.168 22.6267 190.074 22.32 188.634 22.32C187.754 22.32 186.808 22.4667 185.794 22.76C184.781 23.0267 183.608 23.4533 182.274 24.04L180.274 20C181.928 19.2533 183.501 18.6933 184.994 18.32C186.514 17.9467 188.034 17.76 189.554 17.76C192.354 17.76 194.528 18.44 196.074 19.8C197.648 21.1333 198.434 23.0267 198.434 25.48V39H193.034V37.52C192.181 38.16 191.261 38.6267 190.274 38.92C189.288 39.2133 188.208 39.36 187.034 39.36ZM184.634 32.84C184.634 33.64 184.981 34.28 185.674 34.76C186.368 35.2133 187.288 35.44 188.434 35.44C189.341 35.44 190.181 35.3333 190.954 35.12C191.728 34.88 192.421 34.5333 193.034 34.08V31.04C192.368 30.7733 191.674 30.5733 190.954 30.44C190.234 30.3067 189.461 30.24 188.634 30.24C187.381 30.24 186.394 30.48 185.674 30.96C184.981 31.4133 184.634 32.04 184.634 32.84Z" fill="#20282D"/>
<path d="M76.0927 58V47.15H80.7892C81.5022 47.15 82.1222 47.2688 82.6492 47.5065C83.1762 47.7442 83.5844 48.08 83.8737 48.514C84.163 48.9377 84.3077 49.4388 84.3077 50.0175C84.3077 50.5445 84.1734 51.0095 83.9047 51.4125C83.636 51.8155 83.2589 52.1358 82.7732 52.3735C83.3829 52.5905 83.8582 52.9212 84.1992 53.3655C84.5505 53.7995 84.7262 54.311 84.7262 54.9C84.7262 55.5303 84.5712 56.078 84.2612 56.543C83.9512 57.008 83.5172 57.3697 82.9592 57.628C82.4012 57.876 81.745 58 80.9907 58H76.0927ZM77.7202 51.7535H80.6962C81.3059 51.7535 81.7915 51.6088 82.1532 51.3195C82.5149 51.0302 82.6957 50.6375 82.6957 50.1415C82.6957 49.6455 82.5149 49.2528 82.1532 48.9635C81.7915 48.6742 81.3059 48.5295 80.6962 48.5295H77.7202V51.7535ZM77.7202 56.6205H80.8667C81.5487 56.6205 82.086 56.4603 82.4787 56.14C82.8817 55.8197 83.0832 55.3857 83.0832 54.838C83.0832 54.3007 82.8817 53.8718 82.4787 53.5515C82.086 53.2208 81.5487 53.0555 80.8667 53.0555H77.7202V56.6205ZM89.2077 58.155C88.5981 58.155 88.0607 58.0258 87.5957 57.7675C87.1307 57.5092 86.7691 57.1475 86.5107 56.6825C86.2524 56.2072 86.1232 55.6647 86.1232 55.055V50.1105H87.6577V54.7915C87.6577 55.4115 87.8334 55.9023 88.1847 56.264C88.5464 56.6257 89.0269 56.8065 89.6262 56.8065C90.0499 56.8065 90.4271 56.7187 90.7577 56.543C91.0884 56.357 91.3571 56.0987 91.5637 55.768V50.1105H93.1137V58H91.5637V57.194C90.9541 57.8347 90.1687 58.155 89.2077 58.155ZM97.6612 58.155C96.9792 58.155 96.3385 58.0568 95.7392 57.8605C95.1502 57.6538 94.6387 57.3645 94.2047 56.9925L95.0572 55.9695C95.4602 56.2898 95.8735 56.5378 96.2972 56.7135C96.7312 56.8788 97.1703 56.9615 97.6147 56.9615C98.1727 56.9615 98.6273 56.853 98.9787 56.636C99.33 56.419 99.5057 56.1348 99.5057 55.7835C99.5057 55.4942 99.4023 55.2668 99.1957 55.1015C98.989 54.9362 98.6687 54.8225 98.2347 54.7605L96.8087 54.559C96.0233 54.4453 95.4343 54.2025 95.0417 53.8305C94.649 53.4585 94.4527 52.9625 94.4527 52.3425C94.4527 51.8672 94.5818 51.4538 94.8402 51.1025C95.0985 50.7408 95.4602 50.4618 95.9252 50.2655C96.3902 50.0588 96.9327 49.9555 97.5527 49.9555C98.121 49.9555 98.6687 50.0382 99.1957 50.2035C99.7227 50.3688 100.229 50.6272 100.715 50.9785L99.9242 52.0015C99.4902 51.7122 99.0665 51.5003 98.6532 51.366C98.2502 51.2317 97.842 51.1645 97.4287 51.1645C96.9533 51.1645 96.571 51.2678 96.2817 51.4745C95.9923 51.6708 95.8477 51.9292 95.8477 52.2495C95.8477 52.5388 95.9458 52.7662 96.1422 52.9315C96.3488 53.0865 96.6847 53.195 97.1497 53.257L98.5757 53.4585C99.361 53.5722 99.9552 53.815 100.358 54.187C100.761 54.5487 100.963 55.0395 100.963 55.6595C100.963 56.1348 100.818 56.5637 100.529 56.946C100.239 57.318 99.8467 57.6125 99.3507 57.8295C98.8547 58.0465 98.2915 58.155 97.6612 58.155ZM102.154 58V50.1105H103.704V58H102.154ZM102.929 48.8395C102.67 48.8395 102.448 48.7465 102.262 48.5605C102.076 48.3642 101.983 48.1368 101.983 47.8785C101.983 47.6098 102.076 47.3877 102.262 47.212C102.448 47.026 102.67 46.933 102.929 46.933C103.197 46.933 103.425 47.026 103.611 47.212C103.797 47.3877 103.89 47.6098 103.89 47.8785C103.89 48.1368 103.797 48.3642 103.611 48.5605C103.425 48.7465 103.197 48.8395 102.929 48.8395ZM105.529 58V50.1105H107.079V50.9165C107.689 50.2758 108.479 49.9555 109.451 49.9555C110.06 49.9555 110.593 50.0847 111.047 50.343C111.512 50.6013 111.874 50.963 112.132 51.428C112.401 51.893 112.535 52.4303 112.535 53.04V58H110.985V53.3035C110.985 52.6835 110.81 52.1978 110.458 51.8465C110.117 51.4848 109.637 51.304 109.017 51.304C108.603 51.304 108.231 51.3918 107.901 51.5675C107.57 51.7432 107.296 51.9963 107.079 52.327V58H105.529ZM118.106 58.1395C117.331 58.1395 116.628 57.9587 115.998 57.597C115.378 57.2353 114.882 56.7445 114.51 56.1245C114.148 55.5045 113.967 54.8122 113.967 54.0475C113.967 53.2932 114.143 52.6112 114.494 52.0015C114.846 51.3815 115.321 50.8907 115.92 50.529C116.52 50.157 117.186 49.971 117.92 49.971C118.653 49.971 119.304 50.157 119.873 50.529C120.441 50.8907 120.891 51.3867 121.221 52.017C121.562 52.637 121.733 53.3397 121.733 54.125V54.559H115.517C115.6 54.993 115.76 55.3805 115.998 55.7215C116.246 56.0625 116.556 56.3312 116.928 56.5275C117.31 56.7238 117.723 56.822 118.168 56.822C118.55 56.822 118.917 56.7652 119.268 56.6515C119.63 56.5275 119.93 56.3518 120.167 56.1245L121.159 57.101C120.694 57.4523 120.214 57.7158 119.718 57.8915C119.232 58.0568 118.695 58.1395 118.106 58.1395ZM115.533 53.3965H120.198C120.136 52.9832 119.992 52.6215 119.764 52.3115C119.547 51.9912 119.273 51.7432 118.943 51.5675C118.622 51.3815 118.271 51.2885 117.889 51.2885C117.496 51.2885 117.134 51.3763 116.804 51.552C116.473 51.7277 116.194 51.9757 115.967 52.296C115.75 52.606 115.605 52.9728 115.533 53.3965ZM125.997 58.155C125.315 58.155 124.674 58.0568 124.075 57.8605C123.486 57.6538 122.975 57.3645 122.541 56.9925L123.393 55.9695C123.796 56.2898 124.209 56.5378 124.633 56.7135C125.067 56.8788 125.506 56.9615 125.951 56.9615C126.509 56.9615 126.963 56.853 127.315 56.636C127.666 56.419 127.842 56.1348 127.842 55.7835C127.842 55.4942 127.738 55.2668 127.532 55.1015C127.325 54.9362 127.005 54.8225 126.571 54.7605L125.145 54.559C124.359 54.4453 123.77 54.2025 123.378 53.8305C122.985 53.4585 122.789 52.9625 122.789 52.3425C122.789 51.8672 122.918 51.4538 123.176 51.1025C123.434 50.7408 123.796 50.4618 124.261 50.2655C124.726 50.0588 125.269 49.9555 125.889 49.9555C126.457 49.9555 127.005 50.0382 127.532 50.2035C128.059 50.3688 128.565 50.6272 129.051 50.9785L128.26 52.0015C127.826 51.7122 127.402 51.5003 126.989 51.366C126.586 51.2317 126.178 51.1645 125.765 51.1645C125.289 51.1645 124.907 51.2678 124.618 51.4745C124.328 51.6708 124.184 51.9292 124.184 52.2495C124.184 52.5388 124.282 52.7662 124.478 52.9315C124.685 53.0865 125.021 53.195 125.486 53.257L126.912 53.4585C127.697 53.5722 128.291 53.815 128.694 54.187C129.097 54.5487 129.299 55.0395 129.299 55.6595C129.299 56.1348 129.154 56.5637 128.865 56.946C128.575 57.318 128.183 57.6125 127.687 57.8295C127.191 58.0465 126.627 58.155 125.997 58.155ZM133.202 58.155C132.52 58.155 131.88 58.0568 131.28 57.8605C130.691 57.6538 130.18 57.3645 129.746 56.9925L130.598 55.9695C131.001 56.2898 131.415 56.5378 131.838 56.7135C132.272 56.8788 132.711 56.9615 133.156 56.9615C133.714 56.9615 134.168 56.853 134.52 56.636C134.871 56.419 135.047 56.1348 135.047 55.7835C135.047 55.4942 134.943 55.2668 134.737 55.1015C134.53 54.9362 134.21 54.8225 133.776 54.7605L132.35 54.559C131.564 54.4453 130.975 54.2025 130.583 53.8305C130.19 53.4585 129.994 52.9625 129.994 52.3425C129.994 51.8672 130.123 51.4538 130.381 51.1025C130.64 50.7408 131.001 50.4618 131.466 50.2655C131.931 50.0588 132.474 49.9555 133.094 49.9555C133.662 49.9555 134.21 50.0382 134.737 50.2035C135.264 50.3688 135.77 50.6272 136.256 50.9785L135.465 52.0015C135.031 51.7122 134.608 51.5003 134.194 51.366C133.791 51.2317 133.383 51.1645 132.97 51.1645C132.494 51.1645 132.112 51.2678 131.823 51.4745C131.533 51.6708 131.389 51.9292 131.389 52.2495C131.389 52.5388 131.487 52.7662 131.683 52.9315C131.89 53.0865 132.226 53.195 132.691 53.257L134.117 53.4585C134.902 53.5722 135.496 53.815 135.899 54.187C136.302 54.5487 136.504 55.0395 136.504 55.6595C136.504 56.1348 136.359 56.5637 136.07 56.946C135.78 57.318 135.388 57.6125 134.892 57.8295C134.396 58.0465 133.833 58.155 133.202 58.155ZM144.794 58.155C143.926 58.155 143.089 57.9845 142.283 57.6435C141.477 57.3025 140.764 56.822 140.144 56.202L141.136 55.055C141.725 55.6337 142.324 56.0625 142.934 56.3415C143.554 56.6205 144.199 56.76 144.871 56.76C145.398 56.76 145.858 56.6877 146.251 56.543C146.654 56.388 146.964 56.171 147.181 55.892C147.398 55.613 147.506 55.2978 147.506 54.9465C147.506 54.4608 147.336 54.0888 146.995 53.8305C146.654 53.5722 146.09 53.3758 145.305 53.2415L143.492 52.947C142.5 52.7713 141.756 52.451 141.26 51.986C140.774 51.521 140.531 50.901 140.531 50.126C140.531 49.506 140.696 48.9635 141.027 48.4985C141.358 48.0232 141.823 47.6563 142.422 47.398C143.032 47.1397 143.734 47.0105 144.53 47.0105C145.315 47.0105 146.085 47.1397 146.84 47.398C147.604 47.646 148.291 48.0077 148.901 48.483L148.002 49.723C146.834 48.8343 145.651 48.39 144.453 48.39C143.977 48.39 143.564 48.4572 143.213 48.5915C142.861 48.7258 142.587 48.917 142.391 49.165C142.195 49.4027 142.097 49.6817 142.097 50.002C142.097 50.4463 142.246 50.7873 142.546 51.025C142.846 51.2523 143.342 51.4177 144.034 51.521L145.786 51.8155C146.933 52.0015 147.775 52.3373 148.312 52.823C148.849 53.3087 149.118 53.9752 149.118 54.8225C149.118 55.4838 148.937 56.0677 148.576 56.574C148.214 57.07 147.708 57.4575 147.057 57.7365C146.406 58.0155 145.651 58.155 144.794 58.155ZM154.342 58.155C153.578 58.155 152.88 57.9742 152.25 57.6125C151.63 57.2508 151.139 56.76 150.777 56.14C150.416 55.52 150.235 54.8277 150.235 54.063C150.235 53.2983 150.416 52.606 150.777 51.986C151.139 51.366 151.63 50.8752 152.25 50.5135C152.88 50.1415 153.578 49.9555 154.342 49.9555C155.117 49.9555 155.815 50.1415 156.435 50.5135C157.055 50.8752 157.546 51.366 157.907 51.986C158.269 52.606 158.45 53.2983 158.45 54.063C158.45 54.8277 158.269 55.52 157.907 56.14C157.546 56.76 157.055 57.2508 156.435 57.6125C155.815 57.9742 155.117 58.155 154.342 58.155ZM154.342 56.791C154.828 56.791 155.267 56.6722 155.66 56.4345C156.052 56.1865 156.362 55.8558 156.59 55.4425C156.817 55.0292 156.931 54.5642 156.931 54.0475C156.931 53.5412 156.812 53.0865 156.574 52.6835C156.347 52.2702 156.037 51.9395 155.644 51.6915C155.262 51.4435 154.828 51.3195 154.342 51.3195C153.857 51.3195 153.417 51.4435 153.025 51.6915C152.642 51.9395 152.332 52.2702 152.095 52.6835C151.867 53.0865 151.754 53.5412 151.754 54.0475C151.754 54.5642 151.867 55.0292 152.095 55.4425C152.322 55.8558 152.632 56.1865 153.025 56.4345C153.417 56.6722 153.857 56.791 154.342 56.791ZM159.915 58V47.15L161.465 46.8555V58H159.915ZM166.344 58.155C165.735 58.155 165.197 58.0258 164.732 57.7675C164.267 57.5092 163.906 57.1475 163.647 56.6825C163.389 56.2072 163.26 55.6647 163.26 55.055V50.1105H164.794V54.7915C164.794 55.4115 164.97 55.9023 165.321 56.264C165.683 56.6257 166.164 56.8065 166.763 56.8065C167.187 56.8065 167.564 56.7187 167.894 56.543C168.225 56.357 168.494 56.0987 168.7 55.768V50.1105H170.25V58H168.7V57.194C168.091 57.8347 167.305 58.155 166.344 58.155ZM175.464 58.1395C174.7 58.1395 174.116 57.9638 173.713 57.6125C173.31 57.2508 173.108 56.729 173.108 56.047V51.4125H171.434V50.1105H173.108V48.0955L174.643 47.7235V50.1105H176.968V51.4125H174.643V55.6905C174.643 56.0935 174.731 56.3828 174.906 56.5585C175.092 56.7238 175.392 56.8065 175.805 56.8065C176.022 56.8065 176.214 56.791 176.379 56.76C176.555 56.729 176.741 56.6825 176.937 56.6205V57.9225C176.73 57.9948 176.487 58.0465 176.208 58.0775C175.94 58.1188 175.692 58.1395 175.464 58.1395ZM178.11 58V50.1105H179.66V58H178.11ZM178.885 48.8395C178.626 48.8395 178.404 48.7465 178.218 48.5605C178.032 48.3642 177.939 48.1368 177.939 47.8785C177.939 47.6098 178.032 47.3877 178.218 47.212C178.404 47.026 178.626 46.933 178.885 46.933C179.153 46.933 179.381 47.026 179.567 47.212C179.753 47.3877 179.846 47.6098 179.846 47.8785C179.846 48.1368 179.753 48.3642 179.567 48.5605C179.381 48.7465 179.153 48.8395 178.885 48.8395ZM185.236 58.155C184.472 58.155 183.774 57.9742 183.144 57.6125C182.524 57.2508 182.033 56.76 181.671 56.14C181.31 55.52 181.129 54.8277 181.129 54.063C181.129 53.2983 181.31 52.606 181.671 51.986C182.033 51.366 182.524 50.8752 183.144 50.5135C183.774 50.1415 184.472 49.9555 185.236 49.9555C186.011 49.9555 186.709 50.1415 187.329 50.5135C187.949 50.8752 188.44 51.366 188.801 51.986C189.163 52.606 189.344 53.2983 189.344 54.063C189.344 54.8277 189.163 55.52 188.801 56.14C188.44 56.76 187.949 57.2508 187.329 57.6125C186.709 57.9742 186.011 58.155 185.236 58.155ZM185.236 56.791C185.722 56.791 186.161 56.6722 186.554 56.4345C186.946 56.1865 187.256 55.8558 187.484 55.4425C187.711 55.0292 187.825 54.5642 187.825 54.0475C187.825 53.5412 187.706 53.0865 187.468 52.6835C187.241 52.2702 186.931 51.9395 186.538 51.6915C186.156 51.4435 185.722 51.3195 185.236 51.3195C184.751 51.3195 184.311 51.4435 183.919 51.6915C183.536 51.9395 183.226 52.2702 182.989 52.6835C182.761 53.0865 182.648 53.5412 182.648 54.0475C182.648 54.5642 182.761 55.0292 182.989 55.4425C183.216 55.8558 183.526 56.1865 183.919 56.4345C184.311 56.6722 184.751 56.791 185.236 56.791ZM190.81 58V50.1105H192.36V50.9165C192.969 50.2758 193.76 49.9555 194.731 49.9555C195.341 49.9555 195.873 50.0847 196.328 50.343C196.793 50.6013 197.154 50.963 197.413 51.428C197.681 51.893 197.816 52.4303 197.816 53.04V58H196.266V53.3035C196.266 52.6835 196.09 52.1978 195.739 51.8465C195.398 51.4848 194.917 51.304 194.297 51.304C193.884 51.304 193.512 51.3918 193.181 51.5675C192.85 51.7432 192.577 51.9963 192.36 52.327V58H190.81Z" fill="#20282D"/>
</svg>
