<svg width="68" height="68" viewBox="0 0 68 68" fill="none" xmlns="http://www.w3.org/2000/svg">
<path d="M61.3038 58.418C60.6856 58.418 60.2735 58.0059 60.2735 57.3877V18.5453C60.2735 17.721 59.5523 16.9998 58.728 16.9998H9.17045C8.34621 16.9998 7.625 17.721 7.625 18.5453V57.2847C7.625 57.9028 7.21288 58.315 6.5947 58.315C5.97651 58.315 5.56439 57.9028 5.56439 57.2847V18.5453C5.56439 16.4847 7.10985 14.9392 9.17045 14.9392H58.728C60.7886 14.9392 62.3341 16.4847 62.3341 18.5453V57.3877C62.3341 58.0059 61.922 58.418 61.3038 58.418Z" fill="#20282D"/>
<path d="M61.4068 25.6544H6.5947C5.97651 25.6544 5.56439 25.2422 5.56439 24.6241C5.56439 24.0059 5.97651 23.5938 6.5947 23.5938H61.4068C62.025 23.5938 62.4371 24.0059 62.4371 24.6241C62.4371 25.2422 62.025 25.6544 61.4068 25.6544Z" fill="#20282D"/>
<path d="M29.468 21.3272H12.571C11.9528 21.3272 11.5407 20.9151 11.5407 20.2969C11.5407 19.6787 11.9528 19.2666 12.571 19.2666H29.468C30.0862 19.2666 30.4983 19.6787 30.4983 20.2969C30.4983 20.9151 30.0862 21.3272 29.468 21.3272Z" fill="#20282D"/>
<path d="M44.3044 21.3272H43.6862C43.068 21.3272 42.6559 20.9151 42.6559 20.2969C42.6559 19.6787 43.068 19.2666 43.6862 19.2666H44.3044C44.9225 19.2666 45.3347 19.6787 45.3347 20.2969C45.3347 20.9151 44.9225 21.3272 44.3044 21.3272Z" fill="#20282D"/>
<path d="M49.7654 21.3272H49.1472C48.529 21.3272 48.1169 20.9151 48.1169 20.2969C48.1169 19.6787 48.529 19.2666 49.1472 19.2666H49.7654C50.3835 19.2666 50.7957 19.6787 50.7957 20.2969C50.7957 20.9151 50.3835 21.3272 49.7654 21.3272Z" fill="#20282D"/>
<path d="M55.4323 21.3272H54.8141C54.1959 21.3272 53.7838 20.9151 53.7838 20.2969C53.7838 19.6787 54.1959 19.2666 54.8141 19.2666H55.4323C56.0505 19.2666 56.4626 19.6787 56.4626 20.2969C56.4626 20.9151 56.0505 21.3272 55.4323 21.3272Z" fill="#20282D"/>
<path d="M61.7159 67.1756H6.28561C3.40076 67.1756 1.03107 64.8059 1.03107 61.9211V57.2847C1.03107 56.6665 1.44319 56.2544 2.06137 56.2544H27.8189C28.4371 56.2544 28.8493 56.6665 28.8493 57.2847C28.8493 57.9029 28.4371 58.315 27.8189 58.315H3.09167V61.9211C3.09167 63.6726 4.5341 65.115 6.28561 65.115H61.7159C63.4674 65.115 64.9099 63.6726 64.9099 61.9211V58.315H40.1826C39.5644 58.315 39.1523 57.9029 39.1523 57.2847C39.1523 56.6665 39.5644 56.2544 40.1826 56.2544H65.9402C66.5583 56.2544 66.9705 56.6665 66.9705 57.2847V61.9211C66.9705 64.8059 64.6008 67.1756 61.7159 67.1756Z" fill="#20282D"/>
<path d="M38.0177 62.1271H29.8783C28.1268 62.1271 26.6844 60.6847 26.6844 58.9332V57.2847C26.6844 56.6665 27.0965 56.2544 27.7147 56.2544C28.3329 56.2544 28.745 56.6665 28.745 57.2847V58.9332C28.745 59.6544 29.3632 60.0665 29.8783 60.0665H38.0177C38.7389 60.0665 39.1511 59.4483 39.1511 58.9332V57.2847C39.1511 56.6665 39.5632 56.2544 40.1814 56.2544C40.7995 56.2544 41.2117 56.6665 41.2117 57.2847V58.9332C41.2117 60.6847 39.7692 62.1271 38.0177 62.1271Z" fill="#20282D"/>
<path d="M29.056 33.4847H12.7773C12.1591 33.4847 11.7469 33.0726 11.7469 32.4544C11.7469 31.8362 12.1591 31.4241 12.7773 31.4241H29.056C29.6742 31.4241 30.0863 31.8362 30.0863 32.4544C30.0863 33.0726 29.6742 33.4847 29.056 33.4847Z" fill="#20282D"/>
<path d="M29.056 39.2545H12.7773C12.1591 39.2545 11.7469 38.8423 11.7469 38.2242C11.7469 37.606 12.1591 37.1938 12.7773 37.1938H29.056C29.6742 37.1938 30.0863 37.606 30.0863 38.2242C30.0863 38.8423 29.6742 39.2545 29.056 39.2545Z" fill="#20282D"/>
<path d="M29.056 45.127H12.7773C12.1591 45.127 11.7469 44.7149 11.7469 44.0967C11.7469 43.4785 12.1591 43.0664 12.7773 43.0664H29.056C29.6742 43.0664 30.0863 43.4785 30.0863 44.0967C30.0863 44.7149 29.6742 45.127 29.056 45.127Z" fill="#20282D"/>
<path d="M29.056 50.8968H12.7773C12.1591 50.8968 11.7469 50.4847 11.7469 49.8665C11.7469 49.2483 12.1591 48.8362 12.7773 48.8362H29.056C29.6742 48.8362 30.0863 49.2483 30.0863 49.8665C30.0863 50.4847 29.6742 50.8968 29.056 50.8968Z" fill="#20282D"/>
<path d="M29.0553 17C28.6431 17 28.231 16.691 28.128 16.2788C27.9219 15.7637 27.9219 15.3516 27.9219 15.0425C27.9219 10.6122 31.528 7.0061 35.8553 7.0061C40.1825 7.0061 43.7886 10.6122 43.7886 15.0425C43.7886 15.2485 43.7886 15.4546 43.6856 15.6606V15.9697C43.6856 16.5879 43.2735 17 42.6553 17C42.0371 17 41.625 16.5879 41.625 15.9697C41.625 15.7637 41.625 15.5576 41.728 15.3516C41.728 15.2485 41.728 15.1455 41.728 15.0425C41.728 11.7455 39.0492 9.06671 35.8553 9.06671C32.5583 9.06671 29.9825 11.6425 29.9825 15.0425V15.6606C30.1886 16.1758 29.8795 16.794 29.3644 17C29.2613 17 29.1583 17 29.0553 17Z" fill="#20282D"/>
<path d="M24.625 16.9999C24.522 16.9999 24.4189 16.9999 24.3159 16.8969C23.8007 16.6908 23.4916 16.1757 23.6977 15.5575C23.8007 15.3514 23.8007 15.1454 23.8007 14.9393C23.8007 14.1151 23.1826 13.3939 22.0492 12.8787C21.6371 12.6727 21.328 12.1575 21.431 11.7454C21.8432 9.89084 22.4613 8.34538 23.4916 7.00599C23.8007 6.59387 24.3159 6.49084 24.728 6.6969C25.7583 7.21205 26.7886 7.21205 27.3038 6.59387C28.128 5.76963 27.8189 4.73932 27.5098 4.01811C27.3038 3.50296 27.5098 2.98781 27.922 2.78175C29.3644 1.9575 30.9098 1.23629 32.5583 0.824171C33.0735 0.721141 33.4856 0.927201 33.7947 1.33932C34.1038 2.06053 34.825 3.09084 35.8553 3.09084C36.6795 3.09084 37.4007 2.47266 37.9159 1.33932C38.122 0.927201 38.5341 0.61811 39.0492 0.721141C40.6977 1.03023 42.3462 1.75144 43.7886 2.78175C44.2007 3.09084 44.3038 3.50296 44.2007 4.01811C43.7886 5.15144 43.8916 6.18175 44.4068 6.6969C44.9219 7.21205 45.9523 7.31508 46.9826 6.90296C47.4977 6.6969 48.0129 6.90296 48.2189 7.31508C49.0432 8.7575 49.7644 10.303 50.1765 11.9514C50.2795 12.4666 50.0735 12.9817 49.5583 13.1878C48.528 13.5999 47.8068 14.4242 47.8068 15.2484C47.8068 15.3514 47.9098 15.6605 47.9098 15.8666L45.9523 16.4848C45.8492 16.0727 45.6432 15.6605 45.6432 15.2484C45.6432 13.909 46.4674 12.5696 47.8068 11.7454C47.4977 10.8181 47.1886 9.99387 46.6735 9.16963C45.128 9.58175 43.6856 9.16963 42.7583 8.24235C41.831 7.31508 41.5219 5.87266 41.831 4.22417C41.0068 3.70902 40.1826 3.39993 39.2553 3.09084C38.431 4.3272 37.0917 5.15144 35.7523 5.15144C34.4129 5.15144 33.1765 4.43023 32.2492 2.98781C31.322 3.2969 30.4977 3.60599 29.6735 4.12114C30.0856 5.66659 29.7765 7.10902 28.7462 8.13932C27.8189 9.16963 26.3765 9.47872 24.728 9.0666C24.3159 9.78781 23.9038 10.7151 23.6977 11.6424C25.0371 12.4666 25.8613 13.806 25.8613 15.1454C25.8613 15.6605 25.7583 16.0727 25.5523 16.3817C25.4492 16.6908 25.0371 16.9999 24.625 16.9999Z" fill="#20282D"/>
<path d="M44.9215 33.8968C44.3033 33.8968 43.8912 33.4847 43.8912 32.8665V30.8059C43.8912 30.1878 44.3033 29.7756 44.9215 29.7756C45.5397 29.7756 45.9518 30.1878 45.9518 30.8059V32.8665C45.9518 33.4847 45.5397 33.8968 44.9215 33.8968Z" fill="#20282D"/>
<path d="M39.0482 35.6481C38.7391 35.6481 38.533 35.545 38.327 35.339C38.0179 35.0299 37.8118 34.8238 37.5027 34.5147C37.2967 34.2056 36.9876 33.9996 36.7815 33.6905C36.3694 33.2784 36.3694 32.6602 36.7815 32.2481C37.1936 31.8359 37.8118 31.8359 38.2239 32.2481C38.533 32.5571 38.7391 32.7632 39.0482 33.0723C39.2542 33.3814 39.5633 33.5875 39.7694 33.8965C40.1815 34.3087 40.1815 34.9268 39.7694 35.339C39.5633 35.545 39.3573 35.6481 39.0482 35.6481Z" fill="#20282D"/>
<path d="M35.7523 40.1817C35.6493 40.1817 35.5462 40.1817 35.5462 40.1817C35.1341 40.0787 34.825 39.9756 34.4129 39.9756C34.0008 39.8726 33.5886 39.7696 33.1765 39.6666C32.6614 39.5635 32.2493 38.9453 32.4553 38.4302C32.5583 37.915 33.1765 37.5029 33.6917 37.709C34.1038 37.812 34.4129 37.915 34.825 37.915L36.0614 38.2241C36.5765 38.3272 36.9886 38.9453 36.7826 39.4605C36.6796 39.8726 36.1644 40.1817 35.7523 40.1817Z" fill="#20282D"/>
<path d="M51.2078 35.6481C50.8987 35.6481 50.6926 35.545 50.4866 35.339C50.0745 34.9268 50.0745 34.3087 50.4866 33.8965C50.6926 33.6905 51.0017 33.3814 51.2078 33.0723C51.5169 32.7632 51.7229 32.4541 52.032 32.2481C52.4442 31.8359 53.0623 31.8359 53.4745 32.2481C53.8866 32.6602 53.8866 33.2784 53.4745 33.6905C53.2684 33.8965 52.9593 34.2056 52.7532 34.5147C52.4442 34.8238 52.2381 35.1329 51.929 35.339C51.7229 35.545 51.5169 35.6481 51.2078 35.6481Z" fill="#20282D"/>
<path d="M54.5038 40.1817C54.0917 40.1817 53.5765 39.8726 53.4735 39.3574C53.3705 38.8423 53.6796 38.2241 54.1947 38.1211L55.4311 37.812C55.8432 37.709 56.1523 37.709 56.5644 37.6059C57.0796 37.5029 57.6977 37.812 57.8008 38.3271C57.9038 38.8423 57.5947 39.4605 57.0796 39.5635C56.6674 39.6665 56.2553 39.7696 55.8432 39.8726C55.4311 39.9756 55.122 39.9756 54.7099 40.0787C54.7099 40.1817 54.6068 40.1817 54.5038 40.1817Z" fill="#20282D"/>
<path d="M47.1882 52.9575H42.8609C42.2428 52.9575 41.8306 52.5454 41.8306 51.9272V51.412C41.8306 49.9696 41.2125 48.6302 39.9761 47.4969C38.0185 45.6423 37.1943 42.9635 37.7094 40.4908C38.3276 37.606 40.5943 35.3393 43.4791 34.7211C45.7458 34.309 48.1155 34.8241 49.867 36.2666C51.6185 37.709 52.5458 39.7696 52.5458 42.0363C52.5458 44.1999 51.7215 46.1575 50.0731 47.5999C48.9397 48.6302 48.2185 50.0726 48.2185 51.5151V51.9272C48.2185 52.5454 47.8064 52.9575 47.1882 52.9575ZM43.8912 50.8969H46.1579C46.364 49.0423 47.1882 47.3938 48.6306 46.0544C49.867 45.0241 50.4852 43.6847 50.4852 42.0363C50.4852 40.3878 49.764 38.9454 48.5276 37.9151C47.2912 36.8847 45.5397 36.4726 43.8912 36.7817C41.8306 37.1938 40.1822 38.8423 39.77 40.9029C39.3579 42.7575 39.9761 44.7151 41.4185 46.0544C42.8609 47.3938 43.6852 49.0423 43.8912 50.8969Z" fill="#20282D"/>
</svg>
