<svg width="67" height="67" viewBox="0 0 67 67" fill="none" xmlns="http://www.w3.org/2000/svg">
<path d="M22.9602 13.3296C20.9166 14.1015 19.4524 16.0617 19.4524 18.3718C19.4524 19.2614 19.6893 20.0893 20.0718 20.8306C18.4509 21.4538 17.2911 23.0167 17.2911 24.8555C17.2911 26.6949 18.4509 28.2573 20.0718 28.881C19.6893 29.6223 19.4524 30.4502 19.4524 31.3393C19.4524 33.6499 20.9166 35.6101 22.9602 36.3815C22.7982 36.8342 22.6943 37.3154 22.6943 37.823C22.6943 40.207 24.6328 42.1455 27.0168 42.1455C27.555 42.1455 28.0652 42.0342 28.5406 41.8548C29.2408 43.3 30.7092 44.3068 32.4199 44.3068C34.8038 44.3068 36.7424 42.3682 36.7424 39.9843V9.7268C36.7424 7.34341 34.8038 5.4043 32.4199 5.4043C30.7092 5.4043 29.2408 6.41158 28.5406 7.85628C28.0652 7.67688 27.555 7.56555 27.0168 7.56555C24.6328 7.56555 22.6943 9.50466 22.6943 11.888C22.6943 12.3962 22.7982 12.8769 22.9602 13.3296ZM27.0168 9.7268C28.2087 9.7268 29.178 10.6961 29.178 11.888H31.3393C31.3393 10.8496 30.9557 9.90725 30.3431 9.16168C30.5937 8.24569 31.4247 7.56555 32.4199 7.56555C33.6118 7.56555 34.5811 8.53484 34.5811 9.7268V39.9843C34.5811 41.1762 33.6118 42.1455 32.4199 42.1455C31.4247 42.1455 30.5937 41.4659 30.3431 40.5494C30.9557 39.8038 31.3393 38.862 31.3393 37.823H29.178C29.178 39.015 28.2087 39.9843 27.0168 39.9843C25.8248 39.9843 24.8555 39.015 24.8555 37.823C24.8555 36.6311 25.8248 35.6618 27.0168 35.6618V33.5005C25.9641 33.5005 25.0112 33.8942 24.2614 34.521C22.7571 34.2408 21.6136 32.9238 21.6136 31.3393C21.6136 29.5521 23.0684 28.0974 24.8555 28.0974C26.6432 28.0974 28.0974 29.5521 28.0974 31.3393H30.2586C30.2586 28.3602 27.8351 25.9362 24.8555 25.9362C23.6345 25.9362 22.5191 26.3588 21.6136 27.0453V27.0168C20.4217 27.0168 19.4524 26.0475 19.4524 24.8555C19.4524 23.6636 20.4217 22.6943 21.6136 22.6943V22.6663C22.5191 23.3528 23.6345 23.7749 24.8555 23.7749C27.8351 23.7749 30.2586 21.3514 30.2586 18.3718H28.0974C28.0974 20.1595 26.6432 21.6137 24.8555 21.6137C23.0684 21.6137 21.6136 20.1595 21.6136 18.3718C21.6136 16.7878 22.7571 15.4708 24.2614 15.1906C25.0112 15.8174 25.9641 16.2105 27.0168 16.2105V14.0493C25.8248 14.0493 24.8555 13.08 24.8555 11.888C24.8555 10.6961 25.8248 9.7268 27.0168 9.7268Z" fill="#20282D"/>
<path d="M48.6297 7.5653C48.0915 7.5653 47.5818 7.67664 47.1064 7.85604C46.4057 6.41133 44.9373 5.40405 43.2266 5.40405C40.8427 5.40405 38.9041 7.34316 38.9041 9.72655V39.984C38.9041 42.368 40.8427 44.3065 43.2266 44.3065C44.9373 44.3065 46.4057 43.2998 47.1064 41.8546C47.5818 42.034 48.0915 42.1453 48.6297 42.1453C51.0137 42.1453 52.9522 40.2067 52.9522 37.8228C52.9522 37.3152 52.8488 36.834 52.6863 36.3813C54.7299 35.6098 56.1941 33.6496 56.1941 31.339C56.1941 30.45 55.9577 29.6221 55.5752 28.8807C57.1961 28.257 58.3554 26.6947 58.3554 24.8553C58.3554 23.0164 57.1961 21.4535 55.5752 20.8304C55.9577 20.089 56.1941 19.2612 56.1941 18.3715C56.1941 16.0615 54.7299 14.1013 52.6863 13.3293C52.8488 12.8766 52.9522 12.3959 52.9522 11.8878C52.9522 9.50441 51.0137 7.5653 48.6297 7.5653ZM54.0329 18.3715C54.0329 20.1592 52.5787 21.6134 50.791 21.6134C49.0038 21.6134 47.5491 20.1592 47.5491 18.3715H45.3879C45.3879 21.3512 47.8119 23.7747 50.791 23.7747C52.012 23.7747 53.1274 23.3526 54.0329 22.6661V22.694C55.2248 22.694 56.1941 23.6633 56.1941 24.8553C56.1941 26.0473 55.2248 27.0165 54.0329 27.0165V27.045C53.1274 26.3586 52.012 25.9359 50.791 25.9359C47.8119 25.9359 45.3879 28.3599 45.3879 31.339H47.5491C47.5491 29.5519 49.0038 28.0972 50.791 28.0972C52.5787 28.0972 54.0329 29.5519 54.0329 31.339C54.0329 32.9236 52.8894 34.2406 51.3856 34.5208C50.6353 33.8939 49.6824 33.5003 48.6297 33.5003V35.6615C49.8217 35.6615 50.791 36.6308 50.791 37.8228C50.791 39.0148 49.8217 39.984 48.6297 39.984C47.4378 39.984 46.4685 39.0148 46.4685 37.8228H44.3072C44.3072 38.8617 44.6908 39.8036 45.3034 40.5492C45.0528 41.4657 44.2218 42.1453 43.2266 42.1453C42.0347 42.1453 41.0654 41.176 41.0654 39.984V9.72655C41.0654 8.53459 42.0347 7.5653 43.2266 7.5653C44.2218 7.5653 45.0528 8.24544 45.3034 9.16144C44.6908 9.90701 44.3072 10.8494 44.3072 11.8878H46.4685C46.4685 10.6958 47.4378 9.72655 48.6297 9.72655C49.8217 9.72655 50.791 10.6958 50.791 11.8878C50.791 13.0798 49.8217 14.0491 48.6297 14.0491V16.2103C49.6824 16.2103 50.6353 15.8172 51.3856 15.1904C52.8894 15.4705 54.0329 16.7875 54.0329 18.3715Z" fill="#20282D"/>
<path d="M54.84 6.74029C49.7904 1.99409 43.1768 -0.385611 36.2361 0.0512824L36.3701 2.20778C42.712 1.81363 48.7483 3.98227 53.3604 8.31479C57.9747 12.651 60.5164 18.5264 60.5164 24.8555C60.5164 32.4827 56.7147 39.5553 50.3465 43.7754C48.1499 45.2317 46.4878 47.3091 45.4636 49.7099H30.1381C29.0997 47.2917 27.4312 45.1996 25.2309 43.7301C18.6681 39.3437 14.8969 32.0184 15.1423 24.1316L12.9821 24.0646C12.713 32.7011 16.844 40.7246 24.0305 45.5262C25.6177 46.5873 26.8851 48.032 27.7684 49.7099H24.8558V51.8712H28.6306C28.8401 52.5713 29.0079 53.2889 29.0928 54.0324H27.017V56.1937H29.1783V59.4355C29.1783 60.0334 29.6627 60.5162 30.2589 60.5162H31.3395C31.3395 64.092 34.2474 66.9999 37.8233 66.9999C41.3992 66.9999 44.307 64.092 44.307 60.5162H45.3877C45.9844 60.5162 46.4683 60.0334 46.4683 59.4355V56.1937H48.6295V54.0324H46.5443C46.6208 53.29 46.7733 52.5703 46.9785 51.8712H50.7908V49.7099H47.8312C48.7018 48.0504 49.9618 46.6237 51.5411 45.5779C58.514 40.9536 62.6777 33.2077 62.6777 24.8555C62.6777 18.0241 59.8204 11.4205 54.84 6.74029ZM37.8233 64.8387C35.4394 64.8387 33.5008 62.9001 33.5008 60.5162H42.1458C42.1458 62.9001 40.2072 64.8387 37.8233 64.8387ZM44.307 58.3549H31.3395V56.1937H44.307V58.3549ZM44.3841 54.0324H31.253C31.1807 53.2969 31.0641 52.574 30.8868 51.8712H44.7202C44.5482 52.5729 44.4484 53.299 44.3841 54.0324Z" fill="#20282D"/>
<path d="M11.8892 7.56535C14.2731 7.56535 16.2117 9.50446 16.2117 11.8879C16.2117 12.4857 16.6961 12.9685 17.2923 12.9685C17.8891 12.9685 18.373 12.4857 18.373 11.8879C18.373 9.50446 20.3116 7.56535 22.6955 7.56535C23.2922 7.56535 23.7761 7.08255 23.7761 6.48473C23.7761 5.88743 23.2922 5.4041 22.6955 5.4041C20.3116 5.4041 18.373 3.46552 18.373 1.0816C18.373 0.484303 17.8891 0.000976562 17.2923 0.000976562C16.6961 0.000976562 16.2117 0.484303 16.2117 1.0816C16.2117 3.46552 14.2731 5.4041 11.8892 5.4041C11.293 5.4041 10.8086 5.88743 10.8086 6.48473C10.8086 7.08255 11.293 7.56535 11.8892 7.56535ZM17.2923 4.6617C17.7725 5.38352 18.3935 6.00509 19.1154 6.48473C18.3935 6.96489 17.7725 7.58593 17.2923 8.30775C16.8127 7.58593 16.1911 6.96489 15.4693 6.48473C16.1911 6.00509 16.8127 5.38352 17.2923 4.6617Z" fill="#20282D"/>
<path d="M16.2101 18.3717C16.8069 18.3717 17.2907 17.8889 17.2907 17.2911C17.2907 16.6938 16.8069 16.2105 16.2101 16.2105C13.8262 16.2105 11.8876 14.2719 11.8876 11.888C11.8876 11.2907 11.4038 10.8074 10.807 10.8074C10.2107 10.8074 9.72637 11.2907 9.72637 11.888C9.72637 14.2719 7.78778 16.2105 5.40387 16.2105C4.80762 16.2105 4.32324 16.6938 4.32324 17.2911C4.32324 17.8889 4.80762 18.3717 5.40387 18.3717C7.78778 18.3717 9.72637 20.3109 9.72637 22.6942C9.72637 23.2921 10.2107 23.7749 10.807 23.7749C11.4038 23.7749 11.8876 23.2921 11.8876 22.6942C11.8876 20.3109 13.8262 18.3717 16.2101 18.3717ZM10.807 19.1142C10.3274 18.3923 9.70579 17.7713 8.98396 17.2911C9.70579 16.8115 10.3263 16.1899 10.807 15.4681C11.2872 16.1899 11.9082 16.8104 12.63 17.2911C11.9082 17.7713 11.2872 18.3923 10.807 19.1142Z" fill="#20282D"/>
</svg>
