<svg width="30" height="30" viewBox="0 0 30 30" fill="none" xmlns="http://www.w3.org/2000/svg">
<path d="M7.74211 12.5809H6.77437C6.50775 12.5809 6.2905 12.3641 6.2905 12.097H5.32275C5.32275 12.8973 5.97404 13.5486 6.77437 13.5486V14.5164H7.74211V13.5486C8.54243 13.5486 9.19372 12.8973 9.19372 12.097C9.19372 11.2967 8.54243 10.6454 7.74211 10.6454H6.77437C6.50775 10.6454 6.2905 10.4286 6.2905 10.1615C6.2905 9.89445 6.50775 9.67767 6.77437 9.67767H7.74211C8.00872 9.67767 8.22598 9.89445 8.22598 10.1615H9.19372C9.19372 9.36122 8.54243 8.70993 7.74211 8.70993V7.74219H6.77437V8.70993C5.97404 8.70993 5.32275 9.36122 5.32275 10.1615C5.32275 10.9619 5.97404 11.6132 6.77437 11.6132H7.74211C8.00872 11.6132 8.22598 11.8299 8.22598 12.097C8.22598 12.3641 8.00872 12.5809 7.74211 12.5809Z" fill="#20282D"/>
<path d="M20.3222 23.2265H21.29C21.5566 23.2265 21.7738 23.4433 21.7738 23.7104H22.7416C22.7416 22.91 22.0903 22.2588 21.29 22.2588V21.291H20.3222V22.2588C19.5219 22.2588 18.8706 22.91 18.8706 23.7104C18.8706 24.5107 19.5219 25.162 20.3222 25.162H21.29C21.5566 25.162 21.7738 25.3788 21.7738 25.6459C21.7738 25.913 21.5566 26.1297 21.29 26.1297H20.3222C20.0556 26.1297 19.8383 25.913 19.8383 25.6459H18.8706C18.8706 26.4462 19.5219 27.0975 20.3222 27.0975V28.0652H21.29V27.0975C22.0903 27.0975 22.7416 26.4462 22.7416 25.6459C22.7416 24.8455 22.0903 24.1942 21.29 24.1942H20.3222C20.0556 24.1942 19.8383 23.9775 19.8383 23.7104C19.8383 23.4433 20.0556 23.2265 20.3222 23.2265Z" fill="#20282D"/>
<path d="M3.87152 17.4189H2.90378C2.37007 17.4189 1.93604 17.853 1.93604 18.3867V19.3544C1.93604 19.8881 2.37007 20.3222 2.90378 20.3222H3.87152C4.40523 20.3222 4.83926 19.8881 4.83926 19.3544V18.3867C4.83926 17.853 4.40523 17.4189 3.87152 17.4189ZM2.90378 19.3544V18.3867H3.87152L3.872 19.3544H2.90378Z" fill="#20282D"/>
<path d="M7.74212 17.4189H6.77438C6.24067 17.4189 5.80664 17.853 5.80664 18.3867V19.3544C5.80664 19.8881 6.24067 20.3222 6.77438 20.3222H7.74212C8.27583 20.3222 8.70987 19.8881 8.70987 19.3544V18.3867C8.70987 17.853 8.27583 17.4189 7.74212 17.4189ZM6.77438 19.3544V18.3867H7.74212L7.74261 19.3544H6.77438Z" fill="#20282D"/>
<path d="M11.6127 17.4189H10.645C10.1113 17.4189 9.67725 17.853 9.67725 18.3867V19.3544C9.67725 19.8881 10.1113 20.3222 10.645 20.3222H11.6127C12.1464 20.3222 12.5805 19.8881 12.5805 19.3544V18.3867C12.5805 17.853 12.1464 17.4189 11.6127 17.4189ZM10.645 19.3544V18.3867H11.6127L11.6132 19.3544H10.645Z" fill="#20282D"/>
<path d="M3.87152 21.291H2.90378C2.37007 21.291 1.93604 21.725 1.93604 22.2588V23.2265C1.93604 23.7602 2.37007 24.1942 2.90378 24.1942H3.87152C4.40523 24.1942 4.83926 23.7602 4.83926 23.2265V22.2588C4.83926 21.725 4.40523 21.291 3.87152 21.291ZM2.90378 23.2265V22.2588H3.87152L3.872 23.2265H2.90378Z" fill="#20282D"/>
<path d="M7.74212 21.291H6.77438C6.24067 21.291 5.80664 21.725 5.80664 22.2588V23.2265C5.80664 23.7602 6.24067 24.1942 6.77438 24.1942H7.74212C8.27583 24.1942 8.70987 23.7602 8.70987 23.2265V22.2588C8.70987 21.725 8.27583 21.291 7.74212 21.291ZM6.77438 23.2265V22.2588H7.74212L7.74261 23.2265H6.77438Z" fill="#20282D"/>
<path d="M11.6127 21.291H10.645C10.1113 21.291 9.67725 21.725 9.67725 22.2588V23.2265C9.67725 23.7602 10.1113 24.1942 10.645 24.1942H11.6127C12.1464 24.1942 12.5805 23.7602 12.5805 23.2265V22.2588C12.5805 21.725 12.1464 21.291 11.6127 21.291ZM10.645 23.2265V22.2588H11.6127L11.6132 23.2265H10.645Z" fill="#20282D"/>
<path d="M3.87152 25.1611H2.90378C2.37007 25.1611 1.93604 25.5952 1.93604 26.1289V27.0966C1.93604 27.6303 2.37007 28.0644 2.90378 28.0644H3.87152C4.40523 28.0644 4.83926 27.6303 4.83926 27.0966V26.1289C4.83926 25.5952 4.40523 25.1611 3.87152 25.1611ZM2.90378 27.0966V26.1289H3.87152L3.872 27.0966H2.90378Z" fill="#20282D"/>
<path d="M7.74212 25.1611H6.77438C6.24067 25.1611 5.80664 25.5952 5.80664 26.1289V27.0966C5.80664 27.6303 6.24067 28.0644 6.77438 28.0644H7.74212C8.27583 28.0644 8.70987 27.6303 8.70987 27.0966V26.1289C8.70987 25.5952 8.27583 25.1611 7.74212 25.1611ZM6.77438 27.0966V26.1289H7.74212L7.74261 27.0966H6.77438Z" fill="#20282D"/>
<path d="M11.6127 25.1611H10.645C10.1113 25.1611 9.67725 25.5952 9.67725 26.1289V27.0966C9.67725 27.6303 10.1113 28.0644 10.645 28.0644H11.6127C12.1464 28.0644 12.5805 27.6303 12.5805 27.0966V26.1289C12.5805 25.5952 12.1464 25.1611 11.6127 25.1611ZM10.645 27.0966V26.1289H11.6127L11.6132 27.0966H10.645Z" fill="#20282D"/>
<path d="M21.2905 15.4844H28.0647V16.4521H21.2905V15.4844Z" fill="#20282D"/>
<path d="M27.0972 17.4189H28.0649V18.3867H27.0972V17.4189Z" fill="#20282D"/>
<path d="M21.2905 17.4189H26.1292V18.3867H21.2905V17.4189Z" fill="#20282D"/>
<path d="M30 0H10.6452V7.02629C9.72435 6.26468 8.54371 5.80645 7.25806 5.80645C4.81645 5.80645 2.75903 7.46081 2.13435 9.70645C0.935806 9.84919 0 10.8605 0 12.0968V27.5806C0 28.9147 1.08532 30 2.41935 30H12.0968C13.4308 30 14.5161 28.9147 14.5161 27.5806V25.1613H15.5085C15.7539 27.87 18.0348 30 20.8065 30C23.5781 30 25.859 27.87 26.1044 25.1613H30V0ZM7.25806 6.77419C9.65903 6.77419 11.6129 8.72758 11.6129 11.129C11.6129 13.5305 9.65903 15.4839 7.25806 15.4839C4.8571 15.4839 2.90323 13.5305 2.90323 11.129C2.90323 8.72758 4.8571 6.77419 7.25806 6.77419ZM11.6129 14.1798V15.4839H10.3089C10.8155 15.1277 11.2568 14.6865 11.6129 14.1798ZM2.90323 14.1798C3.25935 14.6865 3.70064 15.1277 4.20726 15.4839H2.90323V14.1798ZM13.5484 27.5806C13.5484 28.381 12.8971 29.0323 12.0968 29.0323H2.41935C1.61903 29.0323 0.967742 28.381 0.967742 27.5806V12.0968C0.967742 11.4595 1.38339 10.9224 1.95581 10.7279C1.94564 10.861 1.93548 10.9935 1.93548 11.129V16.4516H12.5806V11.129C12.5806 10.9935 12.5705 10.861 12.5603 10.7279C13.1327 10.9224 13.5484 11.4595 13.5484 12.0968V15.9677V27.5806ZM16.4516 13.5484H14.5161V12.0968V8.70968H16.4516V13.5484ZM20.8065 29.0323C18.4055 29.0323 16.4516 27.0789 16.4516 24.6774C16.4516 22.276 18.4055 20.3226 20.8065 20.3226C23.2074 20.3226 25.1613 22.276 25.1613 24.6774C25.1613 27.0789 23.2074 29.0323 20.8065 29.0323ZM29.0323 24.1935H26.1044C25.859 21.4848 23.5781 19.3548 20.8065 19.3548C18.0348 19.3548 15.7539 21.4848 15.5085 24.1935H14.5161V15.9677V14.5161H28.0645V13.5484H27.0968V1.93548H23.2258V13.5484H22.2581V4.83871H18.3871V13.5484H17.4194V7.74194H13.5484V10.1739C13.215 9.92177 12.8173 9.75823 12.3818 9.70645C12.2177 9.11613 11.9565 8.56742 11.6129 8.07823V0.967742H29.0323V24.1935ZM21.2903 13.5484H19.3548V5.80645H21.2903V13.5484ZM26.129 13.5484H24.1935V2.90323H26.129V13.5484Z" fill="#20282D"/>
</svg>
