<svg width="61" height="61" viewBox="0 0 61 61" fill="none" xmlns="http://www.w3.org/2000/svg">
<g clip-path="url(#clip0_1803_89)">
<path d="M54.3281 32.9114V14.2206C57.5564 13.7555 60.0469 10.979 60.0469 7.625C60.0469 3.94689 57.0541 0.953125 53.375 0.953125C49.6959 0.953125 46.7031 3.94689 46.7031 7.625H0.953125V45.75H29.5955C30.0911 53.7143 36.7106 60.0469 44.7969 60.0469C53.2053 60.0469 60.0469 53.2053 60.0469 44.7969C60.0469 39.9941 57.8099 35.7088 54.3281 32.9114ZM53.375 2.85938C56.0028 2.85938 58.1406 4.99723 58.1406 7.625C58.1406 10.2528 56.0028 12.3906 53.375 12.3906C50.7472 12.3906 48.6094 10.2528 48.6094 7.625C48.6094 4.99723 50.7472 2.85938 53.375 2.85938ZM2.85938 9.53125H46.9843C47.2121 10.2918 47.5743 10.9924 48.0394 11.6138L42.2101 17.4431C41.8365 17.264 41.4247 17.1562 40.9844 17.1562C40.544 17.1562 40.1323 17.264 39.7596 17.4431L37.8391 15.5226C38.0173 15.149 38.125 14.7372 38.125 14.2969C38.125 12.7204 36.8421 11.4375 35.2656 11.4375C33.6892 11.4375 32.4062 12.7204 32.4062 14.2969C32.4062 14.7372 32.514 15.149 32.6931 15.5216L27.9132 20.3016C27.5396 20.1233 27.1278 20.0156 26.6875 20.0156C25.111 20.0156 23.8281 21.2985 23.8281 22.875C23.8281 24.4515 25.111 25.7344 26.6875 25.7344C28.264 25.7344 29.5469 24.4515 29.5469 22.875C29.5469 22.4347 29.4392 22.0229 29.26 21.6502L34.0399 16.8703C34.4135 17.0485 34.8253 17.1562 35.2656 17.1562C35.706 17.1562 36.1177 17.0485 36.4904 16.8694L38.4109 18.7899C38.2327 19.1635 38.125 19.5753 38.125 20.0156C38.125 21.5921 39.4079 22.875 40.9844 22.875C42.5608 22.875 43.8438 21.5921 43.8438 20.0156C43.8438 19.5753 43.736 19.1635 43.5569 18.7909L49.3871 12.9615C50.2592 13.6154 51.2943 14.0586 52.4219 14.2216V31.6113C50.1754 30.3065 47.5762 29.5469 44.7969 29.5469C40.2409 29.5469 36.1558 31.5656 33.3594 34.7443V30.5H27.6406V41.9375H29.8252C29.707 42.5599 29.6355 43.1975 29.5955 43.8438H2.85938V9.53125ZM40.9844 19.0625C41.5095 19.0625 41.9375 19.4895 41.9375 20.0156C41.9375 20.5417 41.5095 20.9688 40.9844 20.9688C40.4592 20.9688 40.0312 20.5417 40.0312 20.0156C40.0312 19.4895 40.4592 19.0625 40.9844 19.0625ZM34.3125 14.2969C34.3125 13.7708 34.7405 13.3438 35.2656 13.3438C35.7908 13.3438 36.2188 13.7708 36.2188 14.2969C36.2188 14.823 35.7908 15.25 35.2656 15.25C34.7405 15.25 34.3125 14.823 34.3125 14.2969ZM27.6406 22.875C27.6406 23.4011 27.2127 23.8281 26.6875 23.8281C26.1623 23.8281 25.7344 23.4011 25.7344 22.875C25.7344 22.3489 26.1623 21.9219 26.6875 21.9219C27.2127 21.9219 27.6406 22.3489 27.6406 22.875ZM44.7969 52.4219C40.5926 52.4219 37.1719 49.0011 37.1719 44.7969C37.1719 40.5926 40.5926 37.1719 44.7969 37.1719C49.0011 37.1719 52.4219 40.5926 52.4219 44.7969C52.4219 49.0011 49.0011 52.4219 44.7969 52.4219ZM31.4531 37.4302C30.9966 38.2537 30.6191 39.1239 30.3199 40.0312H29.5469V32.4062H31.4531V37.4302ZM43.8438 31.5017V35.3142C39.0343 35.7946 35.2656 39.8635 35.2656 44.7969C35.2656 46.1913 35.5744 47.5133 36.1149 48.7085L32.8085 50.6176C31.9488 48.8562 31.4531 46.8852 31.4531 44.7969C31.4531 37.7609 36.9307 31.9935 43.8438 31.5017ZM44.7969 58.1406C40.2085 58.1406 36.1539 55.8121 33.7521 52.2741L37.0718 50.3574C38.8046 52.7574 41.6172 54.3281 44.7969 54.3281C47.9765 54.3281 50.7892 52.7574 52.522 50.3574L55.8417 52.2741C53.4398 55.8121 49.3852 58.1406 44.7969 58.1406ZM56.7853 50.6176L53.4789 48.7085C54.0193 47.5133 54.3281 46.1913 54.3281 44.7969C54.3281 39.8635 50.5595 35.7937 45.75 35.3142V31.5017C52.663 31.9935 58.1406 37.7609 58.1406 44.7969C58.1406 46.8852 57.645 48.8562 56.7853 50.6176Z" fill="#E04700"/>
<path d="M44.7969 39.0781C41.643 39.0781 39.0781 41.643 39.0781 44.7969C39.0781 47.9508 41.643 50.5156 44.7969 50.5156C47.9508 50.5156 50.5156 47.9508 50.5156 44.7969C50.5156 41.643 47.9508 39.0781 44.7969 39.0781ZM44.7969 48.6094C42.6943 48.6094 40.9844 46.8995 40.9844 44.7969C40.9844 42.6943 42.6943 40.9844 44.7969 40.9844C46.8995 40.9844 48.6094 42.6943 48.6094 44.7969C48.6094 46.8995 46.8995 48.6094 44.7969 48.6094Z" fill="#E04700"/>
<path d="M4.76562 11.4375H6.67188V13.3438H4.76562V11.4375Z" fill="#E04700"/>
<path d="M8.57812 11.4375H21.9219V13.3438H8.57812V11.4375Z" fill="#E04700"/>
<path d="M4.76562 15.25H6.67188V17.1562H4.76562V15.25Z" fill="#E04700"/>
<path d="M8.57812 15.25H21.9219V17.1562H8.57812V15.25Z" fill="#E04700"/>
<path d="M4.76562 19.0625H6.67188V20.9688H4.76562V19.0625Z" fill="#E04700"/>
<path d="M8.57812 19.0625H21.9219V20.9688H8.57812V19.0625Z" fill="#E04700"/>
<path d="M4.76562 22.875H6.67188V24.7812H4.76562V22.875Z" fill="#E04700"/>
<path d="M8.57812 22.875H21.9219V24.7812H8.57812V22.875Z" fill="#E04700"/>
<path d="M4.76562 41.9375H10.4844V32.4062H4.76562V41.9375ZM6.67188 34.3125H8.57812V40.0312H6.67188V34.3125Z" fill="#E04700"/>
<path d="M12.3906 41.9375H18.1094V34.3125H12.3906V41.9375ZM14.2969 36.2188H16.2031V40.0312H14.2969V36.2188Z" fill="#E04700"/>
<path d="M20.0156 41.9375H25.7344V26.6875H20.0156V41.9375ZM21.9219 28.5938H23.8281V40.0312H21.9219V28.5938Z" fill="#E04700"/>
</g>
<defs>
<clipPath id="clip0_1803_89">
<rect width="61" height="61" fill="white"/>
</clipPath>
</defs>
</svg>
