<svg width="61" height="61" viewBox="0 0 61 61" fill="none" xmlns="http://www.w3.org/2000/svg">
<path d="M35.2656 51.4688H33.3594V42.1281C33.3594 41.8753 33.259 41.6329 33.0802 41.4542C32.9015 41.2754 32.659 41.175 32.4062 41.175C32.1535 41.175 31.911 41.2754 31.7323 41.4542C31.5535 41.6329 31.4531 41.8753 31.4531 42.1281V51.4688H6.67188V32.4062H14.6019C14.8547 32.4062 15.0971 32.3058 15.2758 32.1271C15.4546 31.9483 15.555 31.7059 15.555 31.4531C15.555 31.2003 15.4546 30.9579 15.2758 30.7792C15.0971 30.6004 14.8547 30.5 14.6019 30.5H5.71875C5.46597 30.5 5.22353 30.6004 5.04479 30.7792C4.86604 30.9579 4.76562 31.2003 4.76562 31.4531V51.4688H2.85938C2.60659 51.4688 2.36416 51.5692 2.18541 51.7479C2.00667 51.9267 1.90625 52.1691 1.90625 52.4219V54.3281C1.90625 55.592 2.40834 56.8042 3.30207 57.6979C4.1958 58.5917 5.40795 59.0938 6.67188 59.0938H31.4531C32.717 59.0938 33.9292 58.5917 34.8229 57.6979C35.7167 56.8042 36.2188 55.592 36.2188 54.3281V52.4219C36.2188 52.1691 36.1183 51.9267 35.9396 51.7479C35.7608 51.5692 35.5184 51.4688 35.2656 51.4688ZM34.3125 54.3281C34.3125 55.0865 34.0112 55.8138 33.475 56.35C32.9388 56.8862 32.2115 57.1875 31.4531 57.1875H29.5469V56.2344C29.5469 55.9816 29.4465 55.7392 29.2677 55.5604C29.089 55.3817 28.8465 55.2812 28.5938 55.2812C28.341 55.2812 28.0985 55.3817 27.9198 55.5604C27.741 55.7392 27.6406 55.9816 27.6406 56.2344V57.1875H10.4844V56.2344C10.4844 55.9816 10.384 55.7392 10.2052 55.5604C10.0265 55.3817 9.78403 55.2812 9.53125 55.2812C9.27847 55.2812 9.03603 55.3817 8.85729 55.5604C8.67854 55.7392 8.57812 55.9816 8.57812 56.2344V57.1875H6.67188C5.91352 57.1875 5.18623 56.8862 4.64999 56.35C4.11375 55.8138 3.8125 55.0865 3.8125 54.3281V53.375H34.3125V54.3281Z" fill="#E04700"/>
<path d="M51.4688 7.625H53.375C53.6278 7.625 53.8702 7.52458 54.049 7.34584C54.2277 7.16709 54.3281 6.92466 54.3281 6.67188C54.3281 6.41909 54.2277 6.17666 54.049 5.99791C53.8702 5.81917 53.6278 5.71875 53.375 5.71875H51.4688C50.7104 5.71875 49.9831 6.02 49.4469 6.55624C48.9106 7.09248 48.6094 7.81977 48.6094 8.57812V9.53125H47.6562C47.4035 9.53125 47.161 9.63167 46.9823 9.81041C46.8035 9.98916 46.7031 10.2316 46.7031 10.4844C46.7031 10.7372 46.8035 10.9796 46.9823 11.1583C47.161 11.3371 47.4035 11.4375 47.6562 11.4375H48.6094V14.2969C48.6094 14.5497 48.7098 14.7921 48.8885 14.9708C49.0673 15.1496 49.3097 15.25 49.5625 15.25C49.8153 15.25 50.0577 15.1496 50.2365 14.9708C50.4152 14.7921 50.5156 14.5497 50.5156 14.2969V11.4375H51.4688C51.7215 11.4375 51.964 11.3371 52.1427 11.1583C52.3215 10.9796 52.4219 10.7372 52.4219 10.4844C52.4219 10.2316 52.3215 9.98916 52.1427 9.81041C51.964 9.63167 51.7215 9.53125 51.4688 9.53125H50.5156V8.57812C50.5156 8.32534 50.616 8.08291 50.7948 7.90416C50.9735 7.72542 51.216 7.625 51.4688 7.625Z" fill="#E04700"/>
<path d="M56.2344 1.90625H44.7969C44.0385 1.90625 43.3112 2.2075 42.775 2.74374C42.2388 3.27998 41.9375 4.00727 41.9375 4.76562V6.67188C41.9375 6.92466 42.0379 7.16709 42.2167 7.34584C42.3954 7.52458 42.6378 7.625 42.8906 7.625C43.1434 7.625 43.3858 7.52458 43.5646 7.34584C43.7433 7.16709 43.8438 6.92466 43.8438 6.67188V4.76562C43.8438 4.51284 43.9442 4.27041 44.1229 4.09166C44.3017 3.91292 44.5441 3.8125 44.7969 3.8125H56.2344C56.4872 3.8125 56.7296 3.91292 56.9083 4.09166C57.0871 4.27041 57.1875 4.51284 57.1875 4.76562V16.2031C57.1875 16.4559 57.0871 16.6983 56.9083 16.8771C56.7296 17.0558 56.4872 17.1562 56.2344 17.1562H44.7969C44.5441 17.1562 44.3017 17.0558 44.1229 16.8771C43.9442 16.6983 43.8438 16.4559 43.8438 16.2031V10.4844C43.8438 10.2316 43.7433 9.98916 43.5646 9.81041C43.3858 9.63167 43.1434 9.53125 42.8906 9.53125C42.6378 9.53125 42.3954 9.63167 42.2167 9.81041C42.0379 9.98916 41.9375 10.2316 41.9375 10.4844V16.2031C41.9375 16.9615 42.2388 17.6888 42.775 18.225C43.3112 18.7612 44.0385 19.0625 44.7969 19.0625H56.2344C56.9927 19.0625 57.72 18.7612 58.2563 18.225C58.7925 17.6888 59.0938 16.9615 59.0938 16.2031V4.76562C59.0938 4.00727 58.7925 3.27998 58.2563 2.74374C57.72 2.2075 56.9927 1.90625 56.2344 1.90625Z" fill="#E04700"/>
<path d="M46.7031 40.0313C46.7031 40.7853 46.9267 41.5224 47.3456 42.1494C47.7646 42.7763 48.36 43.265 49.0566 43.5536C49.7533 43.8421 50.5199 43.9176 51.2594 43.7705C51.999 43.6234 52.6783 43.2603 53.2115 42.7271C53.7447 42.1939 54.1078 41.5146 54.2549 40.775C54.402 40.0355 54.3265 39.2689 54.0379 38.5723C53.7494 37.8756 53.2607 37.2802 52.6338 36.8613C52.0068 36.4424 51.2697 36.2188 50.5156 36.2188C49.5045 36.2188 48.5348 36.6204 47.8198 37.3354C47.1048 38.0504 46.7031 39.0201 46.7031 40.0313ZM52.4219 40.0313C52.4219 40.4083 52.3101 40.7768 52.1006 41.0903C51.8912 41.4038 51.5934 41.6481 51.2451 41.7924C50.8968 41.9367 50.5135 41.9744 50.1437 41.9009C49.774 41.8273 49.4343 41.6458 49.1677 41.3792C48.9011 41.1126 48.7196 40.7729 48.646 40.4032C48.5725 40.0334 48.6102 39.6501 48.7545 39.3018C48.8988 38.9534 49.1431 38.6557 49.4566 38.4463C49.7701 38.2368 50.1386 38.125 50.5156 38.125C51.0212 38.125 51.5061 38.3258 51.8636 38.6833C52.2211 39.0408 52.4219 39.5257 52.4219 40.0313Z" fill="#E04700"/>
<path d="M56.2344 31.4531H44.7969C44.0385 31.4531 43.3112 31.7544 42.775 32.2906C42.2388 32.8269 41.9375 33.5541 41.9375 34.3125V45.75C41.9375 46.5084 42.2388 47.2356 42.775 47.7719C43.3112 48.3081 44.0385 48.6094 44.7969 48.6094H56.2344C56.9927 48.6094 57.72 48.3081 58.2563 47.7719C58.7925 47.2356 59.0938 46.5084 59.0938 45.75V43.8438C59.0938 43.591 58.9933 43.3485 58.8146 43.1698C58.6358 42.991 58.3934 42.8906 58.1406 42.8906C57.8878 42.8906 57.6454 42.991 57.4667 43.1698C57.2879 43.3485 57.1875 43.591 57.1875 43.8438V45.75C57.1875 46.0028 57.0871 46.2452 56.9083 46.424C56.7296 46.6027 56.4872 46.7031 56.2344 46.7031H44.7969C44.5441 46.7031 44.3017 46.6027 44.1229 46.424C43.9442 46.2452 43.8438 46.0028 43.8438 45.75V34.3125C43.8438 34.0597 43.9442 33.8173 44.1229 33.6385C44.3017 33.4598 44.5441 33.3594 44.7969 33.3594H56.2344C56.4872 33.3594 56.7296 33.4598 56.9083 33.6385C57.0871 33.8173 57.1875 34.0597 57.1875 34.3125V40.0312C57.1875 40.284 57.2879 40.5265 57.4667 40.7052C57.6454 40.884 57.8878 40.9844 58.1406 40.9844C58.3934 40.9844 58.6358 40.884 58.8146 40.7052C58.9933 40.5265 59.0938 40.284 59.0938 40.0312V34.3125C59.0938 33.5541 58.7925 32.8269 58.2563 32.2906C57.72 31.7544 56.9927 31.4531 56.2344 31.4531Z" fill="#E04700"/>
<path d="M23.323 13.2008C23.4747 13.2948 23.6497 13.3444 23.8281 13.3438C23.9773 13.3429 24.1242 13.307 24.257 13.2389L29.9758 10.3796C30.1319 10.2996 30.2629 10.1781 30.3544 10.0284C30.4459 9.87873 30.4943 9.70671 30.4943 9.53129C30.4943 9.35587 30.4459 9.18386 30.3544 9.03419C30.2629 8.88452 30.1319 8.763 29.9758 8.68301L24.257 5.82364C24.1119 5.75053 23.9506 5.71571 23.7882 5.72251C23.6259 5.72931 23.468 5.7775 23.3295 5.86249C23.1911 5.94748 23.0766 6.06646 22.9971 6.20813C22.9175 6.3498 22.8755 6.50945 22.875 6.67192V12.3907C22.8747 12.5526 22.9156 12.712 22.994 12.8538C23.0724 12.9955 23.1856 13.115 23.323 13.2008ZM24.7813 8.21598L27.4119 9.53129L24.7813 10.8466V8.21598Z" fill="#E04700"/>
<path d="M25.7344 18.1094C27.431 18.1094 29.0895 17.6063 30.5001 16.6637C31.9108 15.7211 33.0103 14.3814 33.6595 12.814C34.3088 11.2465 34.4787 9.52174 34.1477 7.85774C33.8167 6.19375 32.9997 4.66528 31.8 3.4656C30.6004 2.26593 29.0719 1.44894 27.4079 1.11796C25.7439 0.786966 24.0191 0.956842 22.4517 1.6061C20.8842 2.25536 19.5445 3.35484 18.6019 4.7655C17.6593 6.17617 17.1562 7.83466 17.1562 9.53125C17.1563 11.8063 18.06 13.9882 19.6687 15.5969C21.2774 17.2056 23.4593 18.1094 25.7344 18.1094ZM25.7344 2.85938C27.0539 2.85938 28.3439 3.25068 29.4411 3.98379C30.5383 4.71691 31.3934 5.75891 31.8984 6.97804C32.4034 8.19716 32.5355 9.53865 32.2781 10.8329C32.0206 12.1271 31.3852 13.3159 30.4521 14.249C29.519 15.1821 28.3302 15.8175 27.036 16.0749C25.7418 16.3324 24.4003 16.2002 23.1812 15.6953C21.962 15.1903 20.92 14.3351 20.1869 13.2379C19.4538 12.1408 19.0625 10.8508 19.0625 9.53125C19.0625 7.76176 19.7654 6.06474 21.0166 4.81352C22.2679 3.56231 23.9649 2.85938 25.7344 2.85938Z" fill="#E04700"/>
<path d="M35.2656 21.9219C35.4136 21.9219 35.5595 21.8874 35.6919 21.8213C35.8242 21.7551 35.9394 21.659 36.0281 21.5406L38.8875 17.7281C39.0392 17.5259 39.1043 17.2717 39.0686 17.0215C39.0328 16.7712 38.8991 16.5454 38.6969 16.3938C38.4947 16.2421 38.2405 16.177 37.9902 16.2127C37.74 16.2485 37.5142 16.3822 37.3625 16.5844L34.5031 20.3969C34.3515 20.5991 34.2863 20.8533 34.3221 21.1036C34.3578 21.3538 34.4915 21.5796 34.6938 21.7313C34.8587 21.855 35.0594 21.9219 35.2656 21.9219Z" fill="#E04700"/>
<path d="M37.3625 25.3531C37.4513 25.4715 37.5664 25.5676 37.6988 25.6338C37.8311 25.6999 37.977 25.7344 38.125 25.7344C38.3312 25.7344 38.5319 25.6675 38.6969 25.5438L42.5094 22.6844C42.7116 22.5327 42.8453 22.3069 42.8811 22.0567C42.9168 21.8064 42.8517 21.5522 42.7 21.35C42.5483 21.1478 42.3226 21.0141 42.0723 20.9783C41.8221 20.9426 41.5679 21.0077 41.3656 21.1594L37.5531 24.0188C37.3509 24.1704 37.2172 24.3962 37.1815 24.6465C37.1457 24.8967 37.2108 25.1509 37.3625 25.3531Z" fill="#E04700"/>
<path d="M46.7036 27.45C46.6809 27.3236 46.633 27.2031 46.5626 27.0958C46.4923 26.9884 46.4009 26.8963 46.2941 26.8251C46.1873 26.7539 46.0672 26.705 45.941 26.6814C45.8148 26.6577 45.6852 26.6598 45.5598 26.6875L40.7942 27.6406C40.669 27.6531 40.5476 27.6902 40.4367 27.7496C40.3259 27.8091 40.2278 27.8898 40.1482 27.9872C39.9873 28.1838 39.9111 28.4363 39.9364 28.689C39.9617 28.9418 40.0863 29.1742 40.283 29.3351C40.4796 29.4959 40.732 29.5721 40.9848 29.5468H41.1755L45.9411 28.5937C46.0674 28.5711 46.1879 28.5231 46.2953 28.4528C46.4027 28.3824 46.4947 28.2911 46.5659 28.1843C46.6372 28.0774 46.686 27.9573 46.7097 27.8312C46.7334 27.705 46.7313 27.5753 46.7036 27.45Z" fill="#E04700"/>
<path d="M2.85938 27.6406H14.2969C14.5497 27.6406 14.7921 27.5402 14.9708 27.3615C15.1496 27.1827 15.25 26.9403 15.25 26.6875V11.4375C15.25 11.1847 15.1496 10.9423 14.9708 10.7635C14.7921 10.5848 14.5497 10.4844 14.2969 10.4844H2.85938C2.60659 10.4844 2.36416 10.5848 2.18541 10.7635C2.00667 10.9423 1.90625 11.1847 1.90625 11.4375V26.6875C1.90625 26.9403 2.00667 27.1827 2.18541 27.3615C2.36416 27.5402 2.60659 27.6406 2.85938 27.6406ZM3.8125 12.3906H13.3438V25.7344H3.8125V12.3906Z" fill="#E04700"/>
<path d="M10.4844 14.2969H8.57812C8.32534 14.2969 8.08291 14.3973 7.90416 14.576C7.72542 14.7548 7.625 14.9972 7.625 15.25C7.625 15.5028 7.72542 15.7452 7.90416 15.924C8.08291 16.1027 8.32534 16.2031 8.57812 16.2031H10.4844C10.7372 16.2031 10.9796 16.1027 11.1583 15.924C11.3371 15.7452 11.4375 15.5028 11.4375 15.25C11.4375 14.9972 11.3371 14.7548 11.1583 14.576C10.9796 14.3973 10.7372 14.2969 10.4844 14.2969Z" fill="#E04700"/>
<path d="M10.4844 18.1094H6.67188C6.41909 18.1094 6.17666 18.2098 5.99791 18.3885C5.81917 18.5673 5.71875 18.8097 5.71875 19.0625C5.71875 19.3153 5.81917 19.5577 5.99791 19.7365C6.17666 19.9152 6.41909 20.0156 6.67188 20.0156H10.4844C10.7372 20.0156 10.9796 19.9152 11.1583 19.7365C11.3371 19.5577 11.4375 19.3153 11.4375 19.0625C11.4375 18.8097 11.3371 18.5673 11.1583 18.3885C10.9796 18.2098 10.7372 18.1094 10.4844 18.1094Z" fill="#E04700"/>
<path d="M10.4844 21.9219H6.67188C6.41909 21.9219 6.17666 22.0223 5.99791 22.201C5.81917 22.3798 5.71875 22.6222 5.71875 22.875C5.71875 23.1278 5.81917 23.3702 5.99791 23.549C6.17666 23.7277 6.41909 23.8281 6.67188 23.8281H10.4844C10.7372 23.8281 10.9796 23.7277 11.1583 23.549C11.3371 23.3702 11.4375 23.1278 11.4375 22.875C11.4375 22.6222 11.3371 22.3798 11.1583 22.201C10.9796 22.0223 10.7372 21.9219 10.4844 21.9219Z" fill="#E04700"/>
<path d="M34.4277 27.3548C34.3651 27.2459 34.2817 27.1504 34.1822 27.0738C34.0827 26.9971 33.9691 26.9408 33.8479 26.908C33.7266 26.8753 33.6001 26.8667 33.4755 26.8829C33.351 26.899 33.2308 26.9396 33.1219 27.0021C33.013 27.0647 32.9175 27.1481 32.8409 27.2476C32.7642 27.3471 32.7079 27.4607 32.6752 27.582C32.6424 27.7033 32.6339 27.8298 32.65 27.9543C32.6662 28.0789 32.7067 28.199 32.7693 28.3079L36.9726 35.5803L21.7226 41.299C21.7226 41.299 21.7226 41.299 21.6558 41.299H21.5796L19.1015 42.7287L17.4526 43.6818C17.2355 43.8073 16.9958 43.8888 16.7472 43.9215C16.4986 43.9542 16.246 43.9375 16.0038 43.8725C15.5173 43.741 15.1027 43.4223 14.8505 42.9861L12.9443 39.6882C12.72 39.2568 12.6691 38.7559 12.802 38.2882C12.9349 37.8204 13.2415 37.4211 13.6591 37.172L16.9569 35.2657L19.3397 39.3928C19.4237 39.5382 19.5446 39.6589 19.6902 39.7426C19.8359 39.8263 20.001 39.87 20.169 39.8693C20.3366 39.87 20.5014 39.8264 20.6469 39.7431C20.7923 39.6597 20.9131 39.5394 20.9972 39.3944C21.0813 39.2494 21.1257 39.0848 21.1259 38.9172C21.126 38.7495 21.082 38.5848 20.9982 38.4396L18.5391 34.1887L30.5008 24.3239L30.8916 25.0006C30.9542 25.1095 31.0376 25.205 31.1371 25.2816C31.2366 25.3583 31.3502 25.4146 31.4715 25.4473C31.5927 25.4801 31.7192 25.4886 31.8438 25.4725C31.9683 25.4563 32.0885 25.4158 32.1974 25.3532C32.3063 25.2907 32.4018 25.2072 32.4784 25.1077C32.5551 25.0083 32.6114 24.8946 32.6442 24.7734C32.6769 24.6521 32.6854 24.5256 32.6693 24.4011C32.6532 24.2765 32.6126 24.1564 32.5501 24.0475L31.5969 22.3986C31.5271 22.2791 31.4321 22.1764 31.3185 22.0974C31.2049 22.0183 31.0755 21.965 30.9393 21.9411C30.8023 21.9152 30.6613 21.9198 30.5263 21.9544C30.3912 21.9889 30.2654 22.0527 30.1577 22.1412L16.814 33.1403L12.7536 35.485C12.025 35.9094 11.4576 36.5634 11.1403 37.3446C10.8229 38.1259 10.7736 38.9903 10.9999 39.8026L10.0468 40.3459C9.55568 40.6279 9.15939 41.0494 8.90814 41.5569C8.6569 42.0644 8.56201 42.6351 8.63552 43.1967C8.70903 43.7582 8.94762 44.2852 9.32104 44.711C9.69446 45.1367 10.1859 45.442 10.733 45.5881C10.9756 45.6523 11.2255 45.6844 11.4765 45.6834C11.9779 45.6813 12.4703 45.55 12.9061 45.3021L13.8593 44.7589C14.3171 45.2318 14.8929 45.574 15.5272 45.7501C15.8529 45.8412 16.1898 45.8861 16.528 45.8836C17.198 45.8851 17.8561 45.7074 18.4343 45.3689L19.2635 44.8923L21.1697 48.1996C21.5486 48.8546 22.1716 49.3327 22.9023 49.5293C23.633 49.7258 24.4117 49.6247 25.068 49.2481C25.3936 49.0605 25.679 48.8106 25.908 48.5126C26.1369 48.2146 26.3048 47.8744 26.4022 47.5115C26.4996 47.1486 26.5245 46.77 26.4754 46.3974C26.4264 46.0249 26.3044 45.6657 26.1165 45.3403L24.3818 42.3189L38.6786 36.9528C38.8083 36.904 38.9258 36.8276 39.0229 36.7289C39.12 36.6301 39.1944 36.5114 39.241 36.3809C39.2874 36.252 39.3054 36.1146 39.2939 35.9781C39.2824 35.8416 39.2416 35.7091 39.1743 35.5898L34.4277 27.3548ZM11.9149 43.6437C11.8064 43.7065 11.6865 43.7472 11.5622 43.7635C11.4379 43.7799 11.3116 43.7716 11.1905 43.739C10.9463 43.6756 10.7373 43.5179 10.6091 43.3006C10.5464 43.192 10.5057 43.0722 10.4893 42.9479C10.4729 42.8236 10.4813 42.6973 10.5138 42.5762C10.5463 42.4545 10.6027 42.3405 10.6796 42.2407C10.7565 42.1409 10.8524 42.0573 10.9618 41.9948L11.791 41.5182L12.7441 43.1671L11.9149 43.6437ZM24.458 46.3125C24.5208 46.421 24.5615 46.5409 24.5778 46.6652C24.5942 46.7895 24.5859 46.9158 24.5533 47.0368C24.4854 47.2791 24.3243 47.4847 24.1054 47.6087C23.8877 47.7338 23.6294 47.7679 23.3867 47.7036C23.144 47.6394 22.9364 47.482 22.8091 47.2656L20.9029 43.9582L22.4851 43.0528H22.5613L24.458 46.3125Z" fill="#E04700"/>
</svg>
