<svg width="62" height="62" viewBox="0 0 62 62" fill="none" xmlns="http://www.w3.org/2000/svg">
<g clip-path="url(#clip0_1803_134)">
<path d="M15.5549 5.95361C13.4612 5.95361 11.7578 7.66641 11.7578 9.77172C11.7578 11.877 13.4612 13.59 15.5549 13.59C17.6486 13.59 19.352 11.877 19.352 9.77172C19.352 7.66641 17.6486 5.95361 15.5549 5.95361ZM15.5549 11.7838C14.4515 11.7838 13.554 10.8813 13.554 9.77172C13.554 8.66229 14.4515 7.75972 15.5549 7.75972C16.6583 7.75972 17.5559 8.66229 17.5559 9.77172C17.5558 10.8813 16.6582 11.7838 15.5549 11.7838Z" fill="#E04700"/>
<path d="M19.352 26.8719V23.3805C19.352 22.8816 18.95 22.4773 18.4539 22.4773H9.30627C8.81018 22.4773 8.4082 22.8816 8.4082 23.3805V26.8719C8.4082 27.3708 8.81018 27.7751 9.30627 27.7751H18.454C18.95 27.7751 19.352 27.3708 19.352 26.8719ZM17.5558 25.9687H10.2043V24.2837H17.556V25.9687H17.5558Z" fill="#E04700"/>
<path d="M57.2088 7.49482H51.5082C50.5154 7.49482 49.6495 8.05027 49.2009 8.86803H25.2731V8.29561C25.2731 7.86861 24.9756 7.50012 24.56 7.41212L22.3716 6.94888C22.3676 6.93925 22.3637 6.92962 22.3596 6.91999L23.5814 5.03671C23.8134 4.67906 23.7644 4.20691 23.4641 3.90511L21.3889 1.81863C21.0886 1.51671 20.619 1.46735 20.2632 1.70077L18.3898 2.92917C18.3802 2.92519 18.3707 2.92122 18.3612 2.91713L17.9004 0.716882C17.813 0.299032 17.4463 0 17.0216 0H14.0866C13.6619 0 13.2953 0.299032 13.2078 0.716882L12.747 2.91713C12.7374 2.9211 12.728 2.92507 12.7184 2.92917L10.8451 1.70077C10.4894 1.46747 10.0198 1.51695 9.71944 1.81863L7.64406 3.90499C7.34375 4.20703 7.29489 4.67918 7.52683 5.03671L8.74869 6.92011C8.74474 6.92974 8.74079 6.93925 8.73671 6.94888L6.54817 7.41212C6.13255 7.5 5.8351 7.86861 5.8351 8.29561V8.86803H5.81128C3.42875 8.86803 1.49023 10.8168 1.49023 13.2122V41.298C1.49023 43.6932 3.42863 45.6421 5.81128 45.6421H9.21365C9.64784 48.7881 12.3962 51.1766 15.5538 51.1766C16.4849 51.1766 17.3692 50.9741 18.1681 50.6135L16.1369 58.6038C15.3304 61.7761 20.3578 62.8538 21.1326 59.8076L24.7338 45.6423H27.6575V59.2057C27.6575 60.5276 28.7605 61.6363 30.0753 61.6363C31.3903 61.6363 32.493 60.5276 32.493 59.2057V45.6421H35.417L39.018 59.8072C39.7922 62.8528 44.8205 61.777 44.0137 58.6035L40.7188 45.6421H54.3396C56.7221 45.6421 58.6606 43.6933 58.6606 41.298V21.7894C58.6606 21.2906 58.2587 20.8865 57.7626 20.8865C57.2665 20.8865 56.8645 21.2906 56.8645 21.7894V41.298C56.8645 42.6976 55.7318 43.8364 54.3396 43.8364L21.8935 43.8365C21.4553 40.713 18.78 38.302 15.5539 38.302C12.3962 38.302 9.64796 40.69 9.21377 43.8364H5.81128C4.41903 43.8364 3.28638 42.6976 3.28638 41.298V15.0743H7.38542C7.40278 15.281 7.48947 15.4815 7.64406 15.6369L9.71944 17.7233C10.0196 18.025 10.489 18.0745 10.845 17.8412L12.7183 16.6128C12.7279 16.6167 12.7374 16.6207 12.747 16.6248L13.2078 18.8251C13.2952 19.2429 13.6619 19.5419 14.0866 19.5419H17.0216C17.4463 19.5419 17.8129 19.2429 17.9004 18.8251L18.3612 16.6248C18.3707 16.6208 18.3803 16.6169 18.3899 16.6128L20.2632 17.8412C20.6192 18.0746 21.0888 18.0251 21.3889 17.7233L23.4641 15.6369C23.6187 15.4815 23.7053 15.281 23.7227 15.0743H48.5535L40.1814 23.4911L35.8812 19.1691C35.2119 18.4933 34.0998 18.4936 33.4295 19.1678L30.6378 21.9743C30.287 22.3269 30.287 22.8986 30.6377 23.2511C30.9884 23.6035 31.5571 23.6038 31.9077 23.2512L34.6547 20.4897L38.9562 24.8132C39.6259 25.486 40.7375 25.488 41.4068 24.813L53.6287 12.5256C53.8855 12.2673 53.9623 11.8791 53.8233 11.5416C53.6844 11.2042 53.3567 10.9842 52.9936 10.9842H51.5079C50.4278 10.9842 50.4289 9.30057 51.5079 9.30057H57.2085C57.6572 9.30057 58.0223 9.66702 58.0223 10.1174V15.8485C58.0223 16.3082 57.6414 16.691 57.1842 16.691C56.7222 16.691 56.3462 16.313 56.3462 15.8485V14.3562C56.3462 13.9911 56.1275 13.6617 55.7918 13.522C55.4562 13.382 55.07 13.4594 54.8132 13.7177L40.182 28.4259L35.88 24.1019C35.2054 23.4239 34.1068 23.4236 33.4294 24.1021L26.0588 31.5132C25.3043 32.2729 24.1098 31.0915 24.8748 30.3218L28.9147 26.2605C29.2654 25.9078 29.2654 25.3362 28.9147 24.9836C28.564 24.6313 27.9953 24.631 27.6447 24.9836L23.6048 29.0449C22.5584 30.0971 22.6014 31.8524 23.6819 32.8611C24.7049 33.8161 26.3431 33.7832 27.3297 32.7895L34.6548 25.4241L38.9563 29.7474C39.6232 30.4201 40.7391 30.4225 41.4068 29.7486L54.6219 16.4639C54.8986 17.6284 55.9425 18.497 57.1843 18.497C58.6191 18.497 59.8185 17.2915 59.8185 15.8487V10.1174C59.8187 8.67121 58.6478 7.49482 57.2088 7.49482ZM19.3924 59.3601C19.1933 60.1435 17.6509 59.9407 17.8773 59.0509L20.4674 48.8619C21.2151 47.9629 21.7229 46.8565 21.8933 45.6422H22.8799L19.3924 59.3601ZM30.697 59.2056C30.697 60.0096 29.4537 60.0109 29.4537 59.2056V45.6421H30.697V59.2056ZM42.2736 59.0508C42.4994 59.9386 40.9575 60.1427 40.7585 59.3601L37.2711 45.6421H38.865L42.2736 59.0508ZM14.5141 40.2257C14.8537 40.1475 15.2035 40.1077 15.5539 40.1077C18.0941 40.1077 20.1607 42.1846 20.1615 44.7377L20.1614 44.7392L20.1615 44.7408C20.1607 47.2939 18.094 49.3707 15.5539 49.3707C13.0333 49.3707 10.947 47.2711 10.947 44.7391C10.947 42.5682 12.4143 40.7122 14.5141 40.2257ZM3.28638 13.2122C3.28638 11.8125 4.41903 10.6738 5.81128 10.6738H5.8351V11.2463C5.8351 11.6733 6.13255 12.0418 6.54817 12.1298L8.73671 12.5931C8.74067 12.6027 8.74462 12.6122 8.74869 12.6218L8.32911 13.2685H3.28638V13.2122ZM20.634 15.9283L18.9563 14.8281C18.347 14.4289 16.8532 15.059 16.7054 15.7659L16.2928 17.7359H14.8153L14.4028 15.7659C14.2531 15.0503 12.7536 14.4336 12.1519 14.8281L10.4742 15.9283L9.42931 14.8779L10.5236 13.1912C10.9206 12.5788 10.2941 11.0769 9.59096 10.9283L7.63125 10.5136V9.02826L9.59096 8.61354C10.3028 8.46306 10.9158 6.9555 10.5236 6.35058L9.42931 4.66389L10.4742 3.61342L12.1519 4.71361C12.761 5.1128 14.2549 4.48283 14.4028 3.77594L14.8155 1.80575H16.293L16.7055 3.77594C16.8552 4.4915 18.3547 5.10798 18.9564 4.71361L20.6341 3.61342L21.6789 4.66389L20.5846 6.35058C20.1874 6.96285 20.8143 8.46499 21.5174 8.61354L23.4769 9.02826V10.5137L21.5174 10.9284C20.8057 11.0787 20.1922 12.5866 20.5846 13.1914L21.6789 14.878L20.634 15.9283ZM50.8966 12.7186L50.3498 13.2684H22.7791L22.3596 12.6218C22.3636 12.6122 22.3675 12.6026 22.3716 12.5929L24.56 12.1297C24.9756 12.0418 25.2731 11.6732 25.2731 11.2462V10.6737H48.9284C49.1291 11.6696 49.9128 12.4847 50.8966 12.7186Z" fill="#E04700"/>
<path d="M52.2956 37.8027H35.275C34.7789 37.8027 34.377 38.2073 34.377 38.7067C34.377 39.206 34.7789 39.6106 35.275 39.6106H52.2956C52.7917 39.6106 53.1937 39.206 53.1937 38.7067C53.1937 38.2073 52.7916 37.8027 52.2956 37.8027Z" fill="#E04700"/>
<path d="M52.2956 33.8413H42.2047C41.7086 33.8413 41.3066 34.2459 41.3066 34.7453C41.3066 35.2446 41.7086 35.6492 42.2047 35.6492H52.2956C52.7917 35.6492 53.1936 35.2446 53.1936 34.7453C53.1936 34.2459 52.7915 33.8413 52.2956 33.8413Z" fill="#E04700"/>
<path d="M9.30627 29.3962C8.81018 29.3962 8.4082 29.8009 8.4082 30.3002C8.4082 30.7995 8.81018 31.2042 9.30627 31.2042H15.5549C16.051 31.2042 16.453 30.7995 16.453 30.3002C16.453 29.8009 16.051 29.3962 15.5549 29.3962H9.30627Z" fill="#E04700"/>
<path d="M15.5543 46.8614C16.0504 46.8614 16.4524 46.4571 16.4524 45.9582V43.5221C16.4524 43.0232 16.0504 42.6189 15.5543 42.6189C15.0582 42.6189 14.6562 43.0232 14.6562 43.5221V45.9582C14.6562 46.457 15.0582 46.8614 15.5543 46.8614Z" fill="#E04700"/>
</g>
<defs>
<clipPath id="clip0_1803_134">
<rect width="61.3083" height="61.6362" fill="white"/>
</clipPath>
</defs>
</svg>
