<svg width="61" height="61" viewBox="0 0 61 61" fill="none" xmlns="http://www.w3.org/2000/svg">
<g clip-path="url(#clip0_1803_150)">
<path d="M21.1787 14.3232C21.0035 14.8626 21.176 15.4406 21.618 15.796L25.5538 18.9594L24.2291 23.8322C24.0804 24.3793 24.2807 24.9483 24.7397 25.2821C25.1989 25.6152 25.8016 25.6299 26.2761 25.3194L30.501 22.5538L34.7259 25.3195C34.9537 25.4686 35.211 25.5427 35.4677 25.5427C35.746 25.5427 36.0237 25.4556 36.2621 25.2821C36.7214 24.9486 36.9218 24.3793 36.7728 23.8322L35.4481 18.9596L39.3836 15.7963C39.826 15.441 39.9985 14.8628 39.8231 14.3232C39.6479 13.7835 39.1685 13.4171 38.6019 13.3897L33.5584 13.1438L31.766 8.42324C31.5648 7.89295 31.0681 7.55018 30.5009 7.55018C29.9336 7.55018 29.4369 7.89283 29.2358 8.42312L27.4434 13.144L22.4001 13.3897C21.8334 13.4171 21.354 13.7835 21.1787 14.3232ZM27.8978 15.0302C28.4353 15.004 28.906 14.6619 29.0968 14.1589L30.5007 10.4614L31.9047 14.1593C32.0958 14.6622 32.5666 15.004 33.1037 15.0302L37.0541 15.2228L33.9712 17.7006C33.5517 18.0379 33.372 18.5913 33.5132 19.1103L34.5508 22.9268L31.2416 20.7605C31.0165 20.6132 30.7586 20.5396 30.5006 20.5396C30.2427 20.5396 29.9845 20.6134 29.7593 20.7606L26.4503 22.9268L27.4879 19.1105C27.6292 18.5912 27.4494 18.0377 27.0298 17.7006L23.9471 15.223L27.8978 15.0302ZM29.5476 4.45086V0.953125C29.5476 0.426762 29.9744 0 30.5007 0C31.0271 0 31.4539 0.426762 31.4539 0.953125V4.45086C31.4539 4.97722 31.0271 5.40398 30.5007 5.40398C29.9744 5.40398 29.5476 4.97722 29.5476 4.45086ZM35.352 10.0979C34.9998 9.70674 35.0314 9.10401 35.4226 8.75183L39.3202 5.24219C39.7115 4.88989 40.3141 4.92146 40.6664 5.31272C41.0186 5.70386 40.987 6.30659 40.5959 6.65877L36.6981 10.1684C36.5159 10.3325 36.2879 10.4132 36.0606 10.4132C35.8 10.4132 35.5403 10.307 35.352 10.0979ZM20.3351 5.31272C20.6873 4.92146 21.2899 4.88989 21.6812 5.24219L25.579 8.75183C25.9702 9.10401 26.0018 9.70674 25.6496 10.0979C25.4613 10.3069 25.2016 10.4132 24.9409 10.4132C24.7137 10.4132 24.4857 10.3325 24.3034 10.1684L20.4056 6.65877C20.0143 6.30659 19.9829 5.70386 20.3351 5.31272ZM42.7286 15.796L46.6644 18.9594L45.3397 23.8322C45.191 24.3793 45.3913 24.9483 45.8503 25.2821C46.3092 25.6152 46.912 25.6298 47.3868 25.3194L51.6116 22.5538L55.8366 25.3195C56.0644 25.4686 56.3216 25.5427 56.5784 25.5427C56.8567 25.5427 57.1344 25.4556 57.3728 25.2821C57.8318 24.9489 58.0322 24.3797 57.8834 23.8322L56.5587 18.9596L60.4943 15.7963C60.9365 15.4411 61.109 14.8629 60.9337 14.3232C60.7584 13.7835 60.279 13.4171 59.7126 13.3897L54.669 13.1438L52.8768 8.42324C52.6756 7.89295 52.1789 7.55018 51.6116 7.55018C51.0443 7.55018 50.5476 7.89283 50.3464 8.42312L48.5541 13.1438L43.5109 13.3896C42.944 13.417 42.4646 13.7835 42.2893 14.3232C42.114 14.8628 42.2865 15.441 42.7286 15.796ZM49.0083 15.0302C49.546 15.004 50.0168 14.6619 50.2077 14.1588L51.6115 10.4613L53.0152 14.1587C53.2062 14.6619 53.677 15.004 54.2145 15.0301L58.1648 15.2227L55.0823 17.7002C54.6626 18.0374 54.4827 18.5909 54.624 19.1102L55.6616 22.9267L52.3523 20.7604C52.1271 20.6131 51.8692 20.5395 51.6113 20.5395C51.3532 20.5395 51.0951 20.6132 50.8701 20.7605L47.5611 22.9267L48.5987 19.1104C48.7399 18.5913 48.5602 18.0379 48.1406 17.7005L45.0578 15.2227L49.0083 15.0302ZM0.507098 15.796L4.44291 18.9594L3.11818 23.8322C2.9695 24.3793 3.16977 24.9483 3.62882 25.2821C4.08799 25.6152 4.69072 25.6299 5.16526 25.3194L9.3901 22.5538L13.6151 25.3195C13.8429 25.4686 14.1001 25.5427 14.3568 25.5427C14.6351 25.5427 14.9129 25.4556 15.1513 25.2821C15.6103 24.9489 15.8107 24.3797 15.6619 23.8322L14.3372 18.9596L18.2728 15.7963C18.7148 15.4413 18.8874 14.8633 18.7121 14.3226C18.5365 13.7833 18.0571 13.417 17.4911 13.3896L12.4475 13.1437L10.6553 8.42324C10.454 7.89295 9.95733 7.55018 9.3901 7.55018C8.82275 7.55018 8.32606 7.89283 8.12483 8.42312L6.3326 13.1438L1.28938 13.3896C0.722623 13.417 0.243201 13.7835 0.0680648 14.3226C-0.107668 14.8624 0.0647288 15.4409 0.507098 15.796ZM6.78676 15.0302C7.32444 15.004 7.79529 14.6619 7.98615 14.1588L9.38998 10.4613L10.7937 14.1587C10.9847 14.6619 11.4555 15.004 11.993 15.0301L15.9433 15.2227L12.8608 17.7002C12.4411 18.0374 12.2612 18.5909 12.4025 19.1102L13.44 22.9267L10.1308 20.7604C9.90562 20.6131 9.64768 20.5395 9.38974 20.5395C9.13169 20.5395 8.87363 20.6132 8.64857 20.7605L5.33956 22.9267L6.37716 19.1104C6.51834 18.5913 6.33867 18.0379 5.91906 17.7005L2.8363 15.2227L6.78676 15.0302ZM60.8507 50.6268C60.1801 48.461 58.8065 46.5164 56.9828 45.1508C56.1098 44.4971 55.159 43.9879 54.1561 43.6274C55.5466 42.5361 56.4425 40.8419 56.4425 38.9412C56.4425 35.657 53.7706 32.9852 50.4865 32.9852C47.2022 32.9852 44.5303 35.657 44.5303 38.9412C44.5303 40.8396 45.4241 42.5321 46.8118 43.6236C44.9519 44.2874 43.3042 45.4538 42.0424 47.0255C41.4526 46.2005 40.7723 45.4342 40.0076 44.7425C38.4666 43.349 36.6582 42.3255 34.7106 41.7207C36.7759 40.3515 38.1412 38.0072 38.1412 35.349C38.1412 31.1362 34.7137 27.7088 30.5009 27.7088C26.2881 27.7088 22.8605 31.1362 22.8605 35.349C22.8605 38.0072 24.2257 40.3515 26.291 41.7207C24.3433 42.3254 22.5349 43.349 20.9939 44.7425C20.2292 45.4342 19.5489 46.2005 18.9592 47.0254C17.6975 45.4536 16.0498 44.2872 14.1898 43.6232C15.5774 42.5318 16.4713 40.8393 16.4713 38.9409C16.4713 35.6566 13.7994 32.9848 10.5153 32.9848C7.23104 32.9848 4.55907 35.6566 4.55907 38.9409C4.55907 40.8414 5.45501 42.5357 6.84538 43.627C5.84245 43.9876 4.89171 44.4968 4.01853 45.1505C2.19484 46.516 0.821272 48.4607 0.150629 50.6263C-0.159255 51.6266 0.0124261 52.6418 0.633983 53.4851C1.25542 54.3281 2.17447 54.7923 3.22172 54.7923H16.3978V56.5125C16.3978 58.987 18.411 61.0001 20.8855 61.0001H40.116C42.5904 61.0001 44.6037 58.987 44.6038 56.5125V54.7928H57.7798C58.8271 54.7928 59.7462 54.3285 60.3675 53.4856C60.9889 52.6423 61.1606 51.627 60.8507 50.6268ZM50.4865 34.8914C52.7195 34.8914 54.5363 36.7082 54.5363 38.9412C54.5363 41.1744 52.7195 42.9912 50.4865 42.9912C48.2533 42.9912 46.4365 41.1744 46.4365 38.9412C46.4365 36.7082 48.2533 34.8914 50.4865 34.8914ZM24.7667 35.349C24.7667 32.1873 27.3391 29.615 30.5009 29.615C33.6626 29.615 36.235 32.1873 36.235 35.349C36.235 38.5098 33.6643 41.0814 30.504 41.083C30.5029 41.083 30.5017 41.083 30.5007 41.083C30.4998 41.083 30.4987 41.083 30.4976 41.083C27.3373 41.0812 24.7667 38.5097 24.7667 35.349ZM10.5153 34.8909C12.7483 34.8909 14.5651 36.7077 14.5651 38.9408C14.5651 41.1739 12.7483 42.9907 10.5153 42.9907C8.28209 42.9907 6.46532 41.1739 6.46532 38.9408C6.46532 36.7077 8.28209 34.8909 10.5153 34.8909ZM16.5216 52.8859H3.22184C2.78316 52.8859 2.42884 52.707 2.16851 52.3538C1.90807 52.0007 1.84195 51.6092 1.97169 51.1902C3.13736 47.4259 6.57088 44.897 10.5153 44.897C13.4989 44.897 16.2169 46.3386 17.8885 48.7789C17.2276 50.0628 16.7648 51.4466 16.5216 52.8859ZM42.6975 56.5123C42.6974 57.9357 41.5394 59.0938 40.116 59.0938H20.8855C19.4621 59.0938 18.3041 57.9357 18.3041 56.5123V53.8909C18.9941 47.6732 24.2273 42.9908 30.4976 42.9893C30.4987 42.9893 30.4998 42.9894 30.5009 42.9894C30.5019 42.9894 30.503 42.9893 30.504 42.9893C36.7742 42.9909 42.0072 47.6732 42.6975 53.8909V56.5123ZM58.8331 52.3544C58.5728 52.7075 58.2186 52.8864 57.7798 52.8864H44.4801C44.2368 51.4469 43.774 50.0631 43.1132 48.7791C44.785 46.3389 47.5028 44.8974 50.4863 44.8974C54.4307 44.8974 57.8642 47.4265 59.0299 51.1908C59.1597 51.6096 59.0934 52.0011 58.8331 52.3544Z" fill="#E04700"/>
</g>
<defs>
<clipPath id="clip0_1803_150">
<rect width="61" height="61" fill="white"/>
</clipPath>
</defs>
</svg>
