<svg width="52" height="52" viewBox="0 0 52 52" fill="none" xmlns="http://www.w3.org/2000/svg">
<path d="M18.0536 12.2099C17.9042 12.6697 18.0512 13.1625 18.428 13.4654L21.7831 16.1621L20.6538 20.3159C20.5271 20.7823 20.6978 21.2673 21.0891 21.5519C21.4805 21.8359 21.9943 21.8484 22.3988 21.5837L26.0003 19.2262L29.6018 21.5838C29.796 21.7109 30.0152 21.774 30.2341 21.774C30.4713 21.774 30.7081 21.6998 30.9113 21.5519C31.3028 21.2677 31.4736 20.7823 31.3466 20.3159L30.2173 16.1622L33.5722 13.4656C33.9493 13.1628 34.0963 12.6699 33.9468 12.2099C33.7974 11.7498 33.3888 11.4375 32.9058 11.4142L28.6065 11.2046L27.0786 7.18045C26.9071 6.7284 26.4837 6.43621 26.0002 6.43621C25.5166 6.43621 25.0932 6.7283 24.9218 7.18035L23.3938 11.2047L19.0948 11.4142C18.6116 11.4375 18.203 11.7498 18.0536 12.2099ZM23.7812 12.8126C24.2394 12.7902 24.6407 12.4987 24.8033 12.0699L26 8.91788L27.1968 12.0702C27.3597 12.4989 27.7611 12.7902 28.2189 12.8126L31.5864 12.9768L28.9584 15.089C28.6008 15.3765 28.4477 15.8483 28.568 16.2907L29.4525 19.5441L26.6315 17.6974C26.4397 17.5719 26.2198 17.5091 25.9999 17.5091C25.7801 17.5091 25.56 17.572 25.368 17.6975L22.5473 19.5441L23.4318 16.2909C23.5522 15.8482 23.399 15.3763 23.0413 15.089L20.4134 12.9769L23.7812 12.8126ZM25.1876 3.79416V0.812498C25.1876 0.363796 25.5514 0 26 0C26.4487 0 26.8125 0.363796 26.8125 0.812498V3.79416C26.8125 4.24287 26.4487 4.60666 26 4.60666C25.5514 4.60666 25.1876 4.24287 25.1876 3.79416ZM30.1355 8.60801C29.8353 8.27459 29.8622 7.76078 30.1956 7.46056L33.5181 4.46874C33.8517 4.16842 34.3654 4.19534 34.6657 4.52887C34.9659 4.8623 34.939 5.3761 34.6055 5.67632L31.2829 8.66814C31.1276 8.80799 30.9332 8.87685 30.7395 8.87685C30.5173 8.87685 30.2959 8.78626 30.1355 8.60801ZM17.3344 4.52887C17.6346 4.19534 18.1483 4.16842 18.482 4.46874L21.8046 7.46056C22.138 7.76078 22.1649 8.27459 21.8647 8.60801C21.7043 8.78615 21.4829 8.87685 21.2606 8.87685C21.067 8.87685 20.8726 8.80799 20.7172 8.66814L17.3946 5.67632C17.061 5.3761 17.0342 4.8623 17.3344 4.52887ZM36.4236 13.4654L39.7786 16.1621L38.6494 20.3159C38.5226 20.7823 38.6933 21.2673 39.0847 21.5519C39.4758 21.8359 39.9897 21.8483 40.3944 21.5837L43.9958 19.2262L47.5973 21.5838C47.7915 21.7109 48.0108 21.774 48.2296 21.774C48.4669 21.774 48.7036 21.6998 48.9069 21.5519C49.2982 21.2679 49.469 20.7827 49.3421 20.3159L48.2129 16.1622L51.5677 13.4656C51.9447 13.1629 52.0918 12.67 51.9423 12.2099C51.7929 11.7498 51.3842 11.4375 50.9014 11.4142L46.602 11.2046L45.0743 7.18045C44.9027 6.7284 44.4793 6.43621 43.9958 6.43621C43.5122 6.43621 43.0888 6.7283 42.9172 7.18035L41.3895 11.2046L37.0904 11.4141C36.6072 11.4374 36.1985 11.7498 36.0491 12.2099C35.8996 12.6699 36.0467 13.1628 36.4236 13.4654ZM41.7766 12.8126C42.235 12.7902 42.6363 12.4987 42.799 12.0698L43.9957 8.91778L45.1923 12.0697C45.3551 12.4987 45.7565 12.7902 46.2146 12.8125L49.582 12.9767L46.9544 15.0887C46.5966 15.3761 46.4432 15.848 46.5637 16.2906L47.4481 19.544L44.6272 17.6973C44.4353 17.5718 44.2154 17.509 43.9955 17.509C43.7755 17.509 43.5555 17.5719 43.3637 17.6974L40.543 19.544L41.4274 16.2908C41.5478 15.8483 41.3946 15.3765 41.0369 15.0889L38.4091 12.9767L41.7766 12.8126ZM0.43227 13.4654L3.78731 16.1621L2.65806 20.3159C2.53132 20.7823 2.70204 21.2673 3.09335 21.5519C3.48476 21.8359 3.99856 21.8484 4.40307 21.5837L8.0045 19.2262L11.606 21.5838C11.8002 21.7109 12.0195 21.774 12.2383 21.774C12.4756 21.774 12.7123 21.6998 12.9155 21.5519C13.3069 21.2679 13.4777 20.7827 13.3508 20.3159L12.2216 16.1622L15.5764 13.4656C15.9532 13.1631 16.1004 12.6703 15.951 12.2094C15.8013 11.7496 15.3926 11.4374 14.9101 11.4141L10.6107 11.2045L9.08297 7.18045C8.91143 6.7284 8.48803 6.43621 8.0045 6.43621C7.52087 6.43621 7.09746 6.7283 6.92593 7.18035L5.39816 11.2046L1.09911 11.4141C0.615993 11.4374 0.207315 11.7498 0.0580212 12.2094C-0.0917801 12.6696 0.0551775 13.1627 0.43227 13.4654ZM5.78531 12.8126C6.24365 12.7902 6.64501 12.4987 6.80771 12.0698L8.0044 8.91778L9.20098 12.0697C9.36378 12.4987 9.76515 12.7902 10.2233 12.8125L13.5907 12.9767L10.963 15.0887C10.6053 15.3761 10.4519 15.848 10.5723 16.2906L11.4568 19.544L8.6359 17.6973C8.44395 17.5718 8.22407 17.509 8.00419 17.509C7.78421 17.509 7.56423 17.5719 7.37239 17.6974L4.55165 19.544L5.43614 16.2908C5.55649 15.8483 5.40334 15.3765 5.04564 15.0889L2.41777 12.9767L5.78531 12.8126ZM51.8716 43.1572C51.2999 41.311 50.129 39.6533 48.5744 38.4892C47.8302 37.9319 47.0198 37.4978 46.1648 37.1905C47.3501 36.2602 48.1139 34.816 48.1139 33.1957C48.1139 30.3961 45.8362 28.1184 43.0367 28.1184C40.2371 28.1184 37.9594 30.3961 37.9594 33.1957C37.9594 34.814 38.7213 36.2568 39.9043 37.1872C38.3188 37.7531 36.9142 38.7474 35.8386 40.0872C35.3359 39.3839 34.756 38.7307 34.104 38.1411C32.7905 36.9531 31.2489 36.0807 29.5887 35.5651C31.3492 34.3979 32.5131 32.3995 32.5131 30.1335C32.5131 26.5423 29.5913 23.6206 26.0002 23.6206C22.409 23.6206 19.4872 26.5423 19.4872 30.1335C19.4872 32.3995 20.651 34.3979 22.4115 35.5651C20.7512 36.0806 19.2096 36.9531 17.8961 38.1411C17.2441 38.7307 16.6642 39.3839 16.1616 40.0872C15.0861 38.7472 13.6815 37.7529 12.096 37.1869C13.2788 36.2565 14.0408 34.8137 14.0408 33.1954C14.0408 30.3958 11.7631 28.1181 8.96363 28.1181C6.16402 28.1181 3.88633 30.3958 3.88633 33.1954C3.88633 34.8156 4.65007 36.2599 5.83527 37.1902C4.98034 37.4975 4.16989 37.9316 3.42555 38.4889C1.87097 39.6529 0.700085 41.3107 0.128402 43.1568C-0.135756 44.0095 0.0105925 44.8749 0.540432 45.5938C1.07017 46.3124 1.85361 46.7081 2.74632 46.7081H13.9782V48.1745C13.9782 50.2839 15.6942 52 17.8036 52H34.1965C36.3058 52 38.0219 50.2839 38.022 48.1745V46.7085H49.2538C50.1466 46.7085 50.93 46.3127 51.4597 45.5942C51.9894 44.8753 52.1358 44.0098 51.8716 43.1572ZM43.0367 29.7434C44.9402 29.7434 46.4889 31.2922 46.4889 33.1957C46.4889 35.0994 44.9402 36.6481 43.0367 36.6481C41.133 36.6481 39.5843 35.0994 39.5843 33.1957C39.5843 31.2922 41.133 29.7434 43.0367 29.7434ZM21.1122 30.1335C21.1122 27.4383 23.3049 25.2455 26.0002 25.2455C28.6954 25.2455 30.8881 27.4383 30.8881 30.1335C30.8881 32.828 28.6968 35.0201 26.0028 35.0215C26.0019 35.0215 26.0009 35.0215 26 35.0215C25.9992 35.0215 25.9983 35.0215 25.9974 35.0215C23.3034 35.02 21.1122 32.8279 21.1122 30.1335ZM8.96363 29.743C10.8672 29.743 12.4159 31.2918 12.4159 33.1953C12.4159 35.099 10.8672 36.6477 8.96363 36.6477C7.05999 36.6477 5.5113 35.099 5.5113 33.1953C5.5113 31.2918 7.05999 29.743 8.96363 29.743ZM14.0837 45.083H2.74642C2.37248 45.083 2.07044 44.9305 1.84853 44.6294C1.62652 44.3284 1.57015 43.9947 1.68075 43.6375C2.67441 40.4286 5.60128 38.2727 8.96363 38.2727C11.507 38.2727 13.8239 39.5016 15.2489 41.5819C14.6855 42.6764 14.291 43.856 14.0837 45.083ZM36.3971 48.1744C36.397 49.3877 35.4098 50.3749 34.1965 50.3749H17.8036C16.5903 50.3749 15.6031 49.3877 15.6031 48.1744V45.9397C16.1914 40.6393 20.6523 36.6478 25.9974 36.6465C25.9983 36.6465 25.9992 36.6466 26.0002 36.6466C26.0011 36.6466 26.002 36.6465 26.0028 36.6465C31.3478 36.6479 35.8086 40.6393 36.3971 45.9397V48.1744ZM50.1517 44.6299C49.9298 44.9309 49.6278 45.0834 49.2538 45.0834H37.9166C37.7092 43.8563 37.3147 42.6767 36.7514 41.5821C38.1765 39.5019 40.4933 38.2731 43.0366 38.2731C46.3989 38.2731 49.3258 40.4291 50.3195 43.638C50.43 43.995 50.3736 44.3287 50.1517 44.6299Z" fill="white"/>
</svg>
