<svg width="52" height="50" viewBox="0 0 52 50" fill="none" xmlns="http://www.w3.org/2000/svg">
<path d="M6.95259 4.36346C6.6972 4.36346 6.45227 4.46585 6.27168 4.6481C6.09108 4.83035 5.98963 5.07754 5.98963 5.33528C5.98963 5.59302 6.09108 5.8402 6.27168 6.02246C6.45227 6.20471 6.6972 6.30709 6.95259 6.30709C7.20799 6.30709 7.45292 6.20471 7.63351 6.02246C7.8141 5.8402 7.91556 5.59302 7.91556 5.33528C7.91556 5.07754 7.8141 4.83035 7.63351 4.6481C7.45292 4.46585 7.20799 4.36346 6.95259 4.36346Z" fill="white"/>
<path d="M10.4867 4.36346C10.2962 4.36346 10.11 4.42045 9.95167 4.52724C9.79331 4.63402 9.66989 4.7858 9.597 4.96338C9.52412 5.14095 9.50505 5.33636 9.54221 5.52487C9.57936 5.71338 9.67108 5.88654 9.80575 6.02246C9.94042 6.15837 10.112 6.25092 10.2988 6.28842C10.4856 6.32592 10.6792 6.30667 10.8552 6.23312C11.0311 6.15956 11.1815 6.035 11.2873 5.87519C11.3932 5.71537 11.4496 5.52748 11.4496 5.33528C11.4496 5.07754 11.3482 4.83035 11.1676 4.6481C10.987 4.46585 10.7421 4.36346 10.4867 4.36346Z" fill="white"/>
<path d="M14.0207 4.36346C13.8303 4.36346 13.6441 4.42045 13.4857 4.52724C13.3274 4.63402 13.204 4.7858 13.1311 4.96338C13.0582 5.14095 13.0391 5.33636 13.0763 5.52487C13.1134 5.71338 13.2052 5.88654 13.3398 6.02246C13.4745 6.15837 13.6461 6.25092 13.8329 6.28842C14.0197 6.32592 14.2133 6.30667 14.3893 6.23312C14.5652 6.15956 14.7156 6.035 14.8214 5.87519C14.9272 5.71537 14.9837 5.52748 14.9837 5.33528C14.9837 5.07754 14.8823 4.83035 14.7017 4.6481C14.5211 4.46585 14.2761 4.36346 14.0207 4.36346Z" fill="white"/>
<path d="M38.7015 50H42.2933C42.857 49.9974 43.3968 49.7703 43.7954 49.3681C44.1939 48.9659 44.4189 48.4211 44.4215 47.8523V45.967H46.9156C48.2633 45.9644 49.555 45.423 50.508 44.4612C51.461 43.4995 51.9975 42.1959 52 40.8358V5.1312C52 3.77032 51.4643 2.46518 50.5108 1.50289C49.5573 0.540606 48.264 0 46.9156 0H5.08444C3.73597 0 2.44272 0.540606 1.4892 1.50289C0.535681 2.46518 0 3.77032 0 5.1312V40.8358C0.00254523 42.1959 0.539043 43.4995 1.49201 44.4612C2.44498 45.423 3.73675 45.9644 5.08444 45.967H7.57852V47.8523C7.58105 48.4211 7.80608 48.9659 8.20464 49.3681C8.6032 49.7703 9.14303 49.9974 9.70667 50H13.2985C13.5801 49.9999 13.8589 49.9431 14.1184 49.8329C14.378 49.7228 14.6133 49.5615 14.8104 49.3586C15.0035 49.1597 15.1557 48.9242 15.2582 48.6657C15.3606 48.4072 15.4114 48.1307 15.4074 47.8523V45.967H17.2274V47.8523C17.2299 48.4194 17.4536 48.9628 17.8501 49.3647C18.2466 49.7667 18.784 49.9949 19.3459 50H22.9474C23.511 49.9974 24.0509 49.7703 24.4494 49.3681C24.848 48.9659 25.073 48.4211 25.0756 47.8523V45.967H26.8859V47.8523C26.8885 48.4211 27.1135 48.9659 27.512 49.3681C27.9106 49.7703 28.4504 49.9974 29.0141 50H32.6156C32.897 49.9988 33.1754 49.9415 33.4349 49.8314C33.6943 49.7214 33.9296 49.5607 34.1274 49.3586C34.3236 49.1615 34.4784 48.9266 34.5827 48.6678C34.6869 48.409 34.7384 48.1316 34.7341 47.8523V45.967H36.5926V47.8523C36.5951 48.4178 36.8174 48.9597 37.2119 49.3613C37.6063 49.763 38.1412 49.9924 38.7015 50ZM42.4956 47.8523C42.4956 47.9064 42.4743 47.9583 42.4363 47.9966C42.3984 48.0349 42.347 48.0564 42.2933 48.0564H38.7015C38.6479 48.0564 38.5964 48.0349 38.5585 47.9966C38.5206 47.9583 38.4993 47.9064 38.4993 47.8523V24.8591C38.4993 24.805 38.5206 24.753 38.5585 24.7148C38.5964 24.6765 38.6479 24.655 38.7015 24.655H42.2933C42.347 24.655 42.3984 24.6765 42.4363 24.7148C42.4743 24.753 42.4956 24.805 42.4956 24.8591V47.8523ZM13.4815 47.8523C13.483 47.8779 13.4786 47.9036 13.4685 47.9272C13.4585 47.9508 13.4432 47.9718 13.4237 47.9883C13.4055 48.009 13.3832 48.0256 13.3584 48.0373C13.3336 48.049 13.3066 48.0555 13.2793 48.0564H9.70667C9.65303 48.0564 9.6016 48.0349 9.56367 47.9966C9.52575 47.9583 9.50444 47.9064 9.50444 47.8523V40.5442C9.50444 40.4901 9.52575 40.4382 9.56367 40.3999C9.6016 40.3616 9.65303 40.3401 9.70667 40.3401H13.2985C13.3487 40.345 13.3954 40.3686 13.4292 40.4064C13.4631 40.4441 13.4817 40.4933 13.4815 40.5442V47.8523ZM23.1111 47.8523C23.1111 47.9064 23.0898 47.9583 23.0519 47.9966C23.014 48.0349 22.9625 48.0564 22.9089 48.0564H19.3652C19.3132 48.0539 19.2642 48.0313 19.2284 47.9933C19.1925 47.9553 19.1725 47.9048 19.1726 47.8523V32.2157C19.1713 32.1889 19.1753 32.1621 19.1842 32.1369C19.1932 32.1116 19.2071 32.0884 19.2249 32.0685C19.2428 32.0487 19.2644 32.0326 19.2885 32.0211C19.3126 32.0097 19.3386 32.0032 19.3652 32.0019H22.9667C23.0212 32.0044 23.0726 32.0281 23.1103 32.0679C23.148 32.1077 23.1689 32.1607 23.1689 32.2157L23.1111 47.8523ZM32.7407 47.8523C32.7417 47.902 32.7245 47.9504 32.6926 47.9883C32.6743 48.009 32.6521 48.0256 32.6273 48.0373C32.6025 48.049 32.5755 48.0555 32.5481 48.0564H29.0333C28.9797 48.0564 28.9283 48.0349 28.8903 47.9966C28.8524 47.9583 28.8311 47.9064 28.8311 47.8523V37.036C28.8311 36.9818 28.8524 36.9299 28.8903 36.8917C28.9283 36.8534 28.9797 36.8319 29.0333 36.8319H32.6348C32.6609 36.8318 32.6868 36.8372 32.7108 36.8475C32.7348 36.8579 32.7565 36.8731 32.7745 36.8922C32.7925 36.9113 32.8065 36.9339 32.8156 36.9586C32.8247 36.9833 32.8287 37.0096 32.8274 37.036L32.7407 47.8523ZM34.6667 44.0233V37.036C34.6667 36.468 34.4438 35.9232 34.0468 35.5207C33.6497 35.1182 33.1109 34.8908 32.5481 34.8882H29.0333C28.4697 34.8908 27.9299 35.1179 27.5313 35.5201C27.1327 35.9223 26.9077 36.4671 26.9052 37.036V44.0233H25.0948V32.2157C25.0961 31.9329 25.042 31.6526 24.9356 31.3909C24.8292 31.1292 24.6727 30.8913 24.4749 30.6908C24.2772 30.4903 24.0421 30.3313 23.7833 30.2227C23.5245 30.1142 23.247 30.0583 22.9667 30.0583H19.3652C19.0857 30.0596 18.8092 30.1164 18.5515 30.2255C18.2938 30.3346 18.0599 30.4939 17.8632 30.6942C17.6664 30.8946 17.5108 31.132 17.405 31.3931C17.2992 31.6542 17.2454 31.9337 17.2467 32.2157V44.0233H15.4074V40.5442C15.4049 39.9763 15.1795 39.4325 14.7807 39.0318C14.3819 38.6312 13.842 38.4062 13.2793 38.4062H9.70667C9.14391 38.4062 8.60406 38.6312 8.20523 39.0318C7.8064 39.4325 7.58107 39.9763 7.57852 40.5442V44.0525H5.08444C4.66758 44.0512 4.25507 43.9669 3.87054 43.8045C3.48602 43.642 3.13704 43.4045 2.84362 43.1057C2.5502 42.8069 2.3181 42.4526 2.16062 42.063C2.00315 41.6735 1.92339 41.2565 1.92593 40.8358V5.1312C1.92593 4.2858 2.2587 3.47503 2.85103 2.87725C3.44337 2.27947 4.24675 1.94363 5.08444 1.94363H46.9156C47.7533 1.94363 48.5566 2.27947 49.149 2.87725C49.7413 3.47503 50.0741 4.2858 50.0741 5.1312V40.8358C50.0715 41.6804 49.7379 42.4896 49.1462 43.0869C48.5544 43.6841 47.7525 44.0208 46.9156 44.0233H44.4215V24.8591C44.4215 24.2895 44.1973 23.7432 43.7982 23.3404C43.3991 22.9376 42.8578 22.7114 42.2933 22.7114H38.7015C38.1404 22.7165 37.604 22.945 37.2091 23.3473C36.8141 23.7495 36.5926 24.2928 36.5926 24.8591V44.0233H34.6667Z" fill="white"/>
<path d="M40.5022 18.8241C41.3843 18.819 42.2289 18.4631 42.8526 17.8336C43.4764 17.2041 43.829 16.3518 43.8341 15.4616C43.8315 14.5706 43.4797 13.7168 42.8554 13.0868C42.2311 12.4568 41.3851 12.1017 40.5022 12.0991C39.6186 12.0991 38.7711 12.4534 38.1462 13.084C37.5214 13.7146 37.1704 14.5698 37.1704 15.4616C37.187 16.1272 37.4055 16.7717 37.7963 17.3081L32.0185 24.5384C31.4151 24.3042 30.7583 24.2474 30.1243 24.3747C29.4902 24.502 28.9049 24.8081 28.4363 25.2575C28.4204 25.2888 28.4011 25.3182 28.3785 25.345L24.3533 23.3333C24.4034 23.1651 24.4388 22.9927 24.4593 22.8183C24.4593 21.9265 24.1082 21.0712 23.4834 20.4406C22.8585 19.81 22.0111 19.4558 21.1274 19.4558C20.2437 19.4558 19.3963 19.81 18.7714 20.4406C18.1466 21.0712 17.7956 21.9265 17.7956 22.8183C17.7975 23.2808 17.8959 23.7378 18.0844 24.1594L13.2215 28.3382C12.701 27.9799 12.0891 27.7808 11.4593 27.7648C10.5789 27.7674 9.73539 28.1214 9.1129 28.7497C8.49041 29.3779 8.13958 30.2292 8.13704 31.1176C8.12949 31.5596 8.21096 31.9985 8.37648 32.4078C8.54201 32.817 8.78815 33.1881 9.1 33.4985C9.56591 33.9662 10.1585 34.2844 10.8031 34.4131C11.4478 34.5418 12.1157 34.4752 12.723 34.2218C13.3302 33.9683 13.8497 33.5393 14.2159 32.9887C14.5822 32.4381 14.779 31.7905 14.7815 31.1273C14.7772 30.6692 14.6822 30.2165 14.5022 29.7959L19.3652 25.6171C19.8814 25.978 20.4901 26.1805 21.1178 26.2002C21.5724 26.1968 22.0214 26.0994 22.4372 25.9138C22.8529 25.7283 23.2265 25.4586 23.5348 25.1215L27.56 27.1234C27.5118 27.2954 27.4764 27.4709 27.4541 27.6482C27.4363 28.1824 27.545 28.7132 27.7711 29.1965C27.9972 29.6799 28.3343 30.1019 28.7543 30.4275C29.1743 30.7531 29.6652 30.973 30.1862 31.0689C30.7072 31.1648 31.2434 31.134 31.7503 30.979C32.2572 30.824 32.7201 30.5492 33.1008 30.1776C33.4814 29.8059 33.7688 29.348 33.9391 28.8419C34.1093 28.3358 34.1576 27.796 34.0798 27.2672C34.002 26.7385 33.8005 26.2361 33.4919 25.8018L39.2119 18.5909C39.6226 18.7533 40.0611 18.8326 40.5022 18.8241ZM12.9037 31.1176C12.8966 31.4817 12.7519 31.8293 12.4993 32.0894C12.2306 32.3478 11.8737 32.492 11.5026 32.492C11.1315 32.492 10.7746 32.3478 10.5059 32.0894C10.2499 31.8316 10.1046 31.4826 10.1015 31.1176C10.1002 30.9317 10.1354 30.7474 10.205 30.5754C10.2746 30.4033 10.3772 30.2468 10.507 30.1149C10.6368 29.983 10.7912 29.8783 10.9612 29.8069C11.1312 29.7355 11.3136 29.6987 11.4978 29.6987C11.8582 29.7079 12.202 29.8536 12.4607 30.1069C12.7134 30.367 12.858 30.7146 12.8652 31.0787L12.9037 31.1176ZM21.1852 24.2371C20.8228 24.2283 20.4778 24.0786 20.2222 23.8192C20.0933 23.6927 19.9903 23.5417 19.9193 23.375C19.8482 23.2082 19.8104 23.0289 19.8081 22.8474C19.8146 22.57 19.9016 22.3005 20.0583 22.0724C20.215 21.8443 20.4345 21.6676 20.6897 21.5642C20.9449 21.4607 21.2246 21.4351 21.4941 21.4905C21.7636 21.5458 22.0111 21.6797 22.2059 21.8756C22.4646 22.1324 22.6133 22.4813 22.62 22.8474C22.6175 23.0341 22.5783 23.2185 22.5046 23.3898C22.4309 23.5611 22.3242 23.7159 22.1907 23.8452C22.0572 23.9745 21.8995 24.0757 21.7269 24.143C21.5543 24.2103 21.3702 24.2423 21.1852 24.2371ZM40.5022 14.0428C40.863 14.05 41.2075 14.196 41.4652 14.4509C41.7205 14.71 41.8686 15.0575 41.8793 15.4227C41.8686 15.788 41.7205 16.1355 41.4652 16.3946C41.1966 16.653 40.8397 16.7972 40.4685 16.7972C40.0974 16.7972 39.7405 16.653 39.4719 16.3946C39.2778 16.1979 39.1451 15.9482 39.0902 15.6762C39.0354 15.4042 39.0607 15.122 39.1632 14.8644C39.2657 14.6069 39.4408 14.3853 39.6668 14.2272C39.8929 14.069 40.1599 13.9813 40.4348 13.9747L40.5022 14.0428ZM32.24 27.6482C32.2335 27.9257 32.1466 28.1951 31.9899 28.4232C31.8332 28.6513 31.6136 28.828 31.3584 28.9315C31.1032 29.0349 30.8235 29.0605 30.554 29.0052C30.2846 28.9498 30.0371 28.8159 29.8422 28.62C29.6774 28.4543 29.5558 28.2498 29.4886 28.025C29.4213 27.8001 29.4104 27.562 29.4568 27.3318C29.5032 27.1017 29.6055 26.8868 29.7545 26.7064C29.9035 26.526 30.0946 26.3857 30.3105 26.2982C30.5265 26.2107 30.7606 26.1786 30.9918 26.2049C31.2231 26.2312 31.4443 26.315 31.6355 26.4488C31.8268 26.5826 31.9821 26.7622 32.0876 26.9716C32.1931 27.1809 32.2455 27.4134 32.24 27.6482Z" fill="white"/>
<path d="M19.6444 6.30709H43.8533C44.1087 6.30709 44.3537 6.20471 44.5343 6.02246C44.7148 5.8402 44.8163 5.59302 44.8163 5.33528C44.8163 5.07754 44.7148 4.83035 44.5343 4.6481C44.3537 4.46585 44.1087 4.36346 43.8533 4.36346H19.6444C19.3891 4.36346 19.1441 4.46585 18.9635 4.6481C18.7829 4.83035 18.6815 5.07754 18.6815 5.33528C18.6815 5.59302 18.7829 5.8402 18.9635 6.02246C19.1441 6.20471 19.3891 6.30709 19.6444 6.30709Z" fill="white"/>
</svg>
