<svg width="31" height="31" viewBox="0 0 31 31" fill="none" xmlns="http://www.w3.org/2000/svg">
<path d="M27.401 25.3101C28.08 24.757 28.5166 23.9105 28.5166 22.962C28.5166 21.2997 27.18 19.9478 25.5365 19.9478C23.893 19.9478 22.5564 21.2997 22.5564 22.962C22.5564 23.9105 22.993 24.757 23.6719 25.3101C22.612 25.701 21.7046 26.4118 21.0663 27.3307V26.981C21.0663 24.5967 19.5629 22.5666 17.4674 21.7935C17.9238 21.4222 18.271 20.9189 18.4488 20.3401C18.651 20.4084 18.8625 20.4501 19.0796 20.4501C20.1753 20.4501 21.0663 19.5489 21.0663 18.4406V17.2631L22.6031 18.8174C22.9165 19.1349 23.289 19.3409 23.6794 19.4117C23.8041 19.4343 23.9282 19.4459 24.0514 19.4459C24.5764 19.4459 25.0726 19.2404 25.4515 18.8571C25.826 18.4773 26.0332 17.9729 26.0332 17.4359C26.0332 16.8989 25.826 16.3945 25.4804 16.0473L21.7259 11.5184C21.1791 10.8588 20.5384 10.2876 19.8216 9.82141L14.8642 6.59768C14.159 6.13901 13.3459 5.84713 12.5134 5.75419L10.2277 5.49748L10.8416 4.87655L6.66251 0.64957L0 7.38842L4.17909 11.6154L4.53969 11.2507L5.08653 12.3564C5.53206 13.2577 6.11517 14.0755 6.81946 14.7879C7.15969 15.132 7.52972 15.452 7.91912 15.7389L12.3754 19.0169C12.4593 19.0787 12.5477 19.1314 12.6376 19.1801C12.6302 19.2681 12.6227 19.3565 12.6227 19.4454C12.6227 20.3939 13.0593 21.2404 13.7383 21.7935C11.6428 22.5666 10.1393 24.5967 10.1393 26.981V27.3302C9.50106 26.4113 8.59362 25.701 7.53369 25.3096C8.21266 24.757 8.64925 23.9105 8.64925 22.962C8.64925 21.2997 7.31267 19.9478 5.66914 19.9478C4.02562 19.9478 2.68904 21.2997 2.68904 22.962C2.68904 23.9105 3.12563 24.757 3.8046 25.3101C1.70909 26.0833 0.205627 28.1134 0.205627 30.4976V31H11.1327V30.4976C11.1327 29.3854 10.8034 28.351 10.2426 27.4834H20.9635C20.4023 28.351 20.073 29.3854 20.073 30.4976V31H31V30.4976C31 28.1134 29.4965 26.0833 27.401 25.3101ZM3.68241 22.962C3.68241 21.8538 4.57346 20.9525 5.66914 20.9525C6.76483 20.9525 7.65588 21.8538 7.65588 22.962C7.65588 24.0703 6.76483 24.9715 5.66914 24.9715C4.57346 24.9715 3.68241 24.0703 3.68241 22.962ZM7.05241 26.2023L5.66914 27.7411L4.28588 26.2023C4.72247 26.0581 5.18587 25.9763 5.66914 25.9763C6.15242 25.9763 6.61582 26.0581 7.05241 26.2023ZM1.22631 29.9953C1.38227 28.5765 2.18988 27.3548 3.33821 26.6419L5.66914 29.2352L7.99958 26.6419C9.14791 27.3548 9.95602 28.5765 10.1115 29.9953H1.22631ZM15.9594 16.4548C15.8372 16.1086 15.6416 15.7906 15.3664 15.5399L11.7302 12.2298L15.5671 13.2883C15.7821 13.3476 15.9853 13.441 16.171 13.5661C16.7482 13.956 17.0929 14.6075 17.0929 15.3093V16.8391C16.7516 16.6386 16.3687 16.5045 15.9594 16.4548ZM24.7487 16.7255C24.9365 16.9154 25.0398 17.1676 25.0398 17.4359C25.0398 17.7042 24.9365 17.9564 24.7487 18.1463C24.5148 18.3834 24.1905 18.4828 23.8557 18.4231C23.6158 18.3794 23.4241 18.2271 23.3059 18.1071L21.0663 15.8424V12.2861L24.7487 16.7255ZM1.40462 7.38842L6.66251 2.07028L9.43699 4.87655L4.17909 10.1947L1.40462 7.38842ZM8.50372 14.9265C8.15604 14.6703 7.82525 14.385 7.52177 14.078C6.89297 13.442 6.37294 12.7121 5.9751 11.9073L5.28024 10.5021L9.32871 6.40728L12.4042 6.75342C13.0856 6.82978 13.7507 7.0684 14.3278 7.44368L19.2852 10.6674C19.5619 10.8473 19.8236 11.0482 20.0735 11.2627V18.4406C20.0735 18.9948 19.6279 19.4454 19.0801 19.4454C18.9008 19.4454 18.7279 19.3957 18.5765 19.3052C18.5506 18.7446 18.3758 18.2231 18.0867 17.7825V15.3088C18.0867 14.2704 17.5766 13.3064 16.7223 12.7302C16.4472 12.5448 16.1467 12.4061 15.8288 12.3187L10.7676 10.9226C10.6181 10.8819 10.4587 10.9131 10.3355 11.008C10.2118 11.1035 10.1393 11.2507 10.1393 11.4074V11.9098C10.1393 12.0525 10.1989 12.1881 10.3037 12.283L14.7018 16.2865C14.9586 16.5206 15.1061 16.8552 15.1061 17.2053C15.1061 17.886 14.5578 18.4406 13.8848 18.4406H13.6782C13.4184 18.4406 13.1701 18.3588 12.96 18.2045L8.50372 14.9265ZM13.6161 19.4454C13.6161 19.4439 13.6166 19.4424 13.6166 19.4404C13.6374 19.4409 13.6573 19.4454 13.6782 19.4454H13.8848C15.0068 19.4454 15.9267 18.5939 16.0707 17.4982C16.9399 17.7122 17.5895 18.5009 17.5895 19.4454C17.5895 20.5536 16.6985 21.4549 15.6028 21.4549C14.5071 21.4549 13.6161 20.5536 13.6161 19.4454ZM16.9861 22.6857L15.6028 24.2245L14.2195 22.6857C14.6561 22.5415 15.1195 22.4596 15.6028 22.4596C16.0861 22.4596 16.5495 22.5415 16.9861 22.6857ZM11.16 26.4786C11.3159 25.0599 12.1235 23.8382 13.2719 23.1253L15.6028 25.7185L17.9333 23.1253C19.0816 23.8382 19.8897 25.0599 20.0452 26.4786H11.16ZM23.5497 22.962C23.5497 21.8538 24.4408 20.9525 25.5365 20.9525C26.6322 20.9525 27.5232 21.8538 27.5232 22.962C27.5232 24.0703 26.6322 24.9715 25.5365 24.9715C24.4408 24.9715 23.5497 24.0703 23.5497 22.962ZM26.9197 26.2023L25.5365 27.7411L24.1532 26.2023C24.5898 26.0581 25.0532 25.9763 25.5365 25.9763C26.0198 25.9763 26.4832 26.0581 26.9197 26.2023ZM21.0936 29.9953C21.2496 28.5765 22.0572 27.3548 23.2055 26.6419L25.5365 29.2352L27.8669 26.6419C29.0153 27.3548 29.8234 28.5765 29.9788 29.9953H21.0936Z" fill="white"/>
<path d="M30.8545 0.710357L30.1522 0L26.5298 3.66381L25.8876 3.01424L25.1853 3.7246L26.5298 5.08453L30.8545 0.710357Z" fill="white"/>
<path d="M26.5298 9.39791C27.3514 9.39791 28.0199 8.72172 28.0199 7.89079C28.0199 7.05986 27.3514 6.38367 26.5298 6.38367C25.7083 6.38367 25.0398 7.05986 25.0398 7.89079C25.0398 8.72172 25.7083 9.39791 26.5298 9.39791ZM26.5298 7.38842C26.8035 7.38842 27.0265 7.61398 27.0265 7.89079C27.0265 8.1676 26.8035 8.39316 26.5298 8.39316C26.2562 8.39316 26.0332 8.1676 26.0332 7.89079C26.0332 7.61398 26.2562 7.38842 26.5298 7.38842Z" fill="white"/>
<path d="M18.0862 3.36942H24.0464V4.37417H18.0862V3.36942Z" fill="white"/>
<path d="M18.0862 7.38842H22.0597V8.39316H18.0862V7.38842Z" fill="white"/>
<path d="M23.0531 7.38842H24.0464V8.39316H23.0531V7.38842Z" fill="white"/>
<path d="M18.0862 5.37892H24.0464V6.38367H18.0862V5.37892Z" fill="white"/>
</svg>
