<svg width="31" height="31" viewBox="0 0 31 31" fill="none" xmlns="http://www.w3.org/2000/svg">
<path d="M0.484557 31H19.5761C19.7046 31 19.8278 30.949 19.9186 30.8581C20.0095 30.7673 20.0605 30.6441 20.0605 30.5156V25.8829C20.0679 25.1792 19.8502 24.4916 19.439 23.9204C19.0279 23.3493 18.4449 22.9247 17.7752 22.7085L12.8831 21.0776V19.5326C12.8831 19.5159 12.8822 19.4993 12.8806 19.483C13.4998 18.995 13.985 18.3577 14.2906 17.6309C14.6445 17.63 14.9908 17.5284 15.289 17.338C15.5873 17.1476 15.8252 16.8762 15.9751 16.5556C16.1249 16.235 16.1804 15.8784 16.1352 15.5274C16.0899 15.1764 15.9458 14.8455 15.7195 14.5734C15.7917 14.2397 15.9127 13.6237 15.9649 13.2693C15.9808 13.1606 15.9966 13.0587 16.0116 12.9623C16.1521 12.0568 16.2368 11.5102 15.6923 10.4848C15.1006 9.37151 14.1962 8.45571 13.0905 7.85021C11.9848 7.2447 10.7261 6.97595 9.46958 7.07707C8.21304 7.17818 7.01353 7.64475 6.01886 8.41928C5.0242 9.1938 4.27784 10.2424 3.87177 11.436C3.86315 11.4613 3.85665 11.4873 3.85234 11.5137C3.69086 12.4993 3.82812 13.5281 4.25939 14.5743C4.03358 14.8463 3.8897 15.1768 3.8445 15.5274C3.79931 15.878 3.85466 16.2342 4.00412 16.5545C4.15358 16.8748 4.39098 17.1461 4.68867 17.3366C4.98635 17.5272 5.33206 17.6292 5.6855 17.6309C5.99988 18.3747 6.50092 19.0248 7.14013 19.5182C7.15224 19.5277 7.16502 19.5364 7.17737 19.5456V21.0776L2.28521 22.7085C1.61561 22.9247 1.03268 23.3494 0.621574 23.9205C0.210472 24.4916 -0.00725967 25.1792 0.00018473 25.8829V30.5156C0.00018473 30.6441 0.0512167 30.7673 0.142054 30.8581C0.232891 30.949 0.356093 31 0.484557 31ZM11.2205 24.5493L11.0257 25.6628H9.03487L8.86074 24.6669C8.85189 24.6164 8.83505 24.5677 8.81085 24.5225L10.0304 23.6566L11.2299 24.5085C11.2264 24.5217 11.223 24.5353 11.2205 24.5493ZM9.16693 26.6316H10.8944L11.4886 30.0312H8.57206L9.16693 26.6316ZM19.0921 25.8829V30.0312H16.7755V27.9115C16.7755 27.783 16.7245 27.6598 16.6336 27.5689C16.5428 27.4781 16.4196 27.427 16.2911 27.427C16.1627 27.427 16.0395 27.4781 15.9486 27.5689C15.8578 27.6598 15.8068 27.783 15.8068 27.9115V30.0312H12.472L11.8586 26.5238L12.1027 25.1282L13.4892 26.1129C13.5617 26.1643 13.6469 26.1949 13.7356 26.2011C13.8242 26.2074 13.9129 26.1891 13.9919 26.1483C14.0709 26.1076 14.1371 26.0458 14.1833 25.9699C14.2296 25.894 14.254 25.8068 14.254 25.7179V22.5557L17.4691 23.6275C17.9447 23.7812 18.3588 24.0829 18.6507 24.4887C18.9427 24.8945 19.0972 25.383 19.0918 25.8829H19.0921ZM13.2857 22.2327V24.7797L10.8674 23.0622L12.4347 21.949L13.2857 22.2327ZM14.591 16.6074C14.688 16.0471 14.6817 15.4738 14.5726 14.9158C14.7486 14.9753 14.9018 15.088 15.0109 15.2383C15.1201 15.3887 15.1798 15.5693 15.1818 15.7551C15.1838 15.9408 15.1281 16.1227 15.0222 16.2754C14.9164 16.4281 14.7657 16.5441 14.591 16.6074ZM4.80207 11.7098C5.15359 10.7011 5.79161 9.81685 6.63798 9.16528C7.48435 8.51371 8.50234 8.12313 9.56729 8.04135C10.6322 7.95958 11.6979 8.19016 12.6338 8.70487C13.5697 9.21958 14.3352 9.99608 14.8366 10.9393C15.2302 11.6801 15.1858 11.9658 15.0543 12.8138C15.039 12.9125 15.0228 13.0169 15.0064 13.1282C14.9733 13.3528 14.9102 13.692 14.8515 13.9871C14.6682 13.9285 14.477 13.8987 14.2846 13.8988H14.2673C13.7197 12.0914 13.1011 11.1557 12.3265 10.9598C11.9869 10.8737 11.4578 10.8968 10.8667 11.4946C10.8387 11.5228 10.8143 11.5544 10.7941 11.5886C9.90826 13.0855 8.3263 13.8004 6.09316 13.714C6.01681 13.711 5.94085 13.7262 5.87151 13.7583C5.80216 13.7904 5.7414 13.8384 5.69422 13.8985C5.48356 13.8985 5.27444 13.9344 5.0758 14.0045C4.78191 13.212 4.68975 12.4416 4.80207 11.7098ZM4.79783 15.7649C4.79813 15.5841 4.85303 15.4075 4.95535 15.2583C5.05766 15.1092 5.20263 14.9944 5.37127 14.929C5.27534 15.4832 5.2777 16.05 5.37823 16.6034C5.20789 16.539 5.06115 16.4243 4.95749 16.2746C4.85383 16.1248 4.79815 15.9471 4.79783 15.765V15.7649ZM6.41878 14.6901H6.45729C8.83889 14.6901 10.5659 13.8323 11.5949 12.1371C11.7402 11.9978 11.9318 11.8589 12.089 11.899C12.2373 11.9365 12.7692 12.223 13.3864 14.3341C13.3914 14.3515 13.3975 14.3686 13.4045 14.3852C13.7199 15.1387 13.7773 15.9753 13.5678 16.7648C13.3584 17.5543 12.8939 18.2523 12.2465 18.7504C11.5992 19.2484 10.8054 19.5184 9.98865 19.5184C9.17193 19.5184 8.37813 19.2483 7.73082 18.7502C7.13129 18.2822 6.68582 17.6452 6.45194 16.9215C6.21806 16.1978 6.20651 15.4205 6.41878 14.6901ZM9.9886 20.4859C10.6528 20.4858 11.3094 20.3442 11.9146 20.0705V21.1299L10.0304 22.4682L8.14611 21.1299V20.1084C8.72838 20.3577 9.35522 20.4862 9.9886 20.4859ZM7.62644 21.949L9.19381 23.0622L6.77534 24.7797V22.2327L7.62644 21.949ZM0.968929 25.8829C0.963501 25.383 1.11804 24.8945 1.40998 24.4888C1.70192 24.083 2.11594 23.7812 2.59158 23.6276L5.8066 22.5558V25.718C5.8066 25.8069 5.83106 25.8941 5.8773 25.97C5.92354 26.0459 5.98978 26.1076 6.06875 26.1484C6.14773 26.1892 6.2364 26.2074 6.32506 26.2012C6.41372 26.1949 6.49895 26.1644 6.57142 26.1129L7.95793 25.1283L8.202 26.5239L7.58866 30.0312H4.25388V27.9115C4.25388 27.783 4.20285 27.6598 4.11201 27.5689C4.02117 27.4781 3.89797 27.427 3.76951 27.427C3.64104 27.427 3.51784 27.4781 3.42701 27.5689C3.33617 27.6598 3.28514 27.783 3.28514 27.9115V30.0312H0.968929V25.8829ZM31 10.7234C31 10.8519 30.949 10.9751 30.8581 11.0659C30.7673 11.1568 30.6441 11.2078 30.5156 11.2078H17.7594C17.6309 11.2078 17.5077 11.1568 17.4169 11.0659C17.326 10.9751 17.275 10.8519 17.275 10.7234C17.275 10.5949 17.326 10.4717 17.4169 10.3809C17.5077 10.29 17.6309 10.239 17.7594 10.239H19.5978V7.22346C19.5978 7.09498 19.6488 6.97177 19.7396 6.88092C19.8305 6.79008 19.9537 6.73904 20.0821 6.73904C20.2106 6.73904 20.3338 6.79008 20.4246 6.88092C20.5155 6.97177 20.5665 7.09498 20.5665 7.22346V10.239H22.3013V4.76345C22.3013 4.63498 22.3524 4.51176 22.4432 4.42092C22.534 4.33007 22.6573 4.27903 22.7857 4.27903C22.9142 4.27903 23.0374 4.33007 23.1282 4.42092C23.2191 4.51176 23.2701 4.63498 23.2701 4.76345V10.239H25.0049V5.86048C25.0049 5.73201 25.056 5.60879 25.1468 5.51795C25.2376 5.4271 25.3608 5.37606 25.4893 5.37606C25.6178 5.37606 25.741 5.4271 25.8318 5.51795C25.9226 5.60879 25.9737 5.73201 25.9737 5.86048V10.239H27.7086V3.36717C27.7086 3.2387 27.7596 3.11548 27.8504 3.02464C27.9413 2.93379 28.0645 2.88275 28.1929 2.88275C28.3214 2.88275 28.4446 2.93379 28.5354 3.02464C28.6263 3.11548 28.6773 3.2387 28.6773 3.36717V10.239H30.5156C30.6441 10.239 30.7673 10.29 30.8581 10.3809C30.949 10.4717 31 10.5949 31 10.7234ZM27.8645 0.125435C27.9592 0.0396649 28.0839 -0.0052422 28.2115 0.000488136C28.3391 0.00621847 28.4593 0.0621223 28.5459 0.156032C28.6324 0.249941 28.6784 0.374254 28.6738 0.501911C28.6692 0.629569 28.6144 0.750238 28.5212 0.837653L25.8176 3.33096C25.7501 3.39323 25.6663 3.43502 25.5759 3.45144C25.4855 3.46787 25.3924 3.45826 25.3072 3.42373L22.8862 2.44133L20.4081 4.696C20.313 4.78169 20.1878 4.82623 20.0599 4.81987C19.932 4.81352 19.8119 4.75678 19.7257 4.66207C19.6395 4.56736 19.5944 4.44238 19.6001 4.31446C19.6058 4.18654 19.6619 4.06608 19.7561 3.97942L22.4597 1.51935C22.5272 1.45785 22.6108 1.41668 22.7007 1.40061C22.7906 1.38454 22.8832 1.39422 22.9678 1.42852L25.3868 2.41002L27.8645 0.125435ZM17.6542 15.2745C17.5466 15.2984 17.4504 15.3583 17.3815 15.4443C17.3125 15.5303 17.275 15.6372 17.275 15.7474V16.97C17.275 17.0802 17.3125 17.1871 17.3815 17.2731C17.4504 17.359 17.5466 17.4189 17.6542 17.4428L18.0256 17.5255C18.0869 17.7146 18.1632 17.8986 18.2537 18.0757L18.0493 18.3969C17.9902 18.4899 17.9645 18.6003 17.9765 18.7099C17.9886 18.8194 18.0376 18.9216 18.1155 18.9995L18.9799 19.8639C19.0579 19.9418 19.16 19.9908 19.2695 20.0028C19.3791 20.0148 19.4894 19.9892 19.5824 19.93L19.9036 19.7257C20.0806 19.8163 20.2646 19.8925 20.4538 19.9538L20.5364 20.3253C20.5603 20.4328 20.6202 20.529 20.7061 20.598C20.7921 20.6669 20.899 20.7045 21.0092 20.7045H22.2315C22.3417 20.7045 22.4486 20.6669 22.5345 20.598C22.6205 20.529 22.6804 20.4328 22.7043 20.3253L22.7869 19.9538C22.9761 19.8925 23.16 19.8163 23.3371 19.7257L23.658 19.93C23.751 19.9892 23.8613 20.0148 23.9709 20.0028C24.0804 19.9908 24.1825 19.9418 24.2604 19.8639L25.1249 18.9995C25.2028 18.9216 25.2518 18.8194 25.2639 18.7099C25.2759 18.6003 25.2502 18.4899 25.191 18.3969L24.9867 18.0757C25.0772 17.8986 25.1535 17.7146 25.2148 17.5255L25.5862 17.4428C25.6938 17.4189 25.79 17.359 25.8589 17.2731C25.9279 17.1871 25.9654 17.0802 25.9654 16.97V15.7473C25.9654 15.6371 25.9279 15.5301 25.8589 15.4442C25.79 15.3582 25.6938 15.2983 25.5862 15.2744L25.2148 15.1918C25.1535 15.0026 25.0772 14.8187 24.9867 14.6416L25.191 14.3203C25.2502 14.2273 25.2759 14.117 25.2638 14.0074C25.2518 13.8979 25.2027 13.7957 25.1248 13.7178L24.2605 12.8534C24.1826 12.7755 24.0804 12.7265 23.9709 12.7144C23.8613 12.7024 23.751 12.7281 23.658 12.7873L23.3371 12.9916C23.16 12.9011 22.976 12.8248 22.7869 12.7634L22.7043 12.392C22.6803 12.2844 22.6205 12.1882 22.5345 12.1193C22.4485 12.0504 22.3417 12.0128 22.2315 12.0128H21.0092C20.899 12.0128 20.7921 12.0504 20.7061 12.1193C20.6202 12.1882 20.5603 12.2844 20.5364 12.392L20.4538 12.7634C20.2646 12.8247 20.0806 12.901 19.9036 12.9916L19.5824 12.7873C19.4894 12.7281 19.379 12.7024 19.2695 12.7144C19.16 12.7265 19.0578 12.7755 18.9799 12.8534L18.1157 13.7178C18.0378 13.7957 17.9887 13.8979 17.9767 14.0074C17.9647 14.117 17.9903 14.2273 18.0495 14.3203L18.2538 14.6416C18.1633 14.8187 18.087 15.0027 18.0257 15.1919L17.6542 15.2745ZM18.2437 16.1359L18.5188 16.0748C18.6077 16.055 18.6892 16.0105 18.754 15.9465C18.8188 15.8824 18.8642 15.8014 18.8851 15.7127C18.9542 15.4188 19.0707 15.1381 19.2298 14.8815C19.2778 14.8041 19.303 14.7146 19.3024 14.6235C19.3019 14.5324 19.2756 14.4433 19.2267 14.3664L19.0754 14.1283L19.3902 13.8134L19.6283 13.9648C19.7052 14.0136 19.7942 14.0398 19.8852 14.0403C19.9762 14.0409 20.0656 14.0158 20.143 13.9679C20.3996 13.8087 20.6803 13.6923 20.9742 13.6231C21.0629 13.6023 21.1439 13.5569 21.2079 13.4921C21.272 13.4273 21.3164 13.3458 21.3362 13.2568L21.3973 12.9818H21.8427L21.9039 13.2568C21.9236 13.3458 21.9681 13.4273 22.0321 13.4921C22.0962 13.5569 22.1772 13.6024 22.2659 13.6232C22.5598 13.6923 22.8405 13.8087 23.0971 13.9679C23.1745 14.0158 23.2639 14.0409 23.3549 14.0404C23.4459 14.0398 23.5349 14.0136 23.6118 13.9648L23.8499 13.8134L24.1647 14.1283L24.0134 14.3664C23.9645 14.4433 23.9382 14.5324 23.9377 14.6235C23.9371 14.7146 23.9623 14.8041 24.0103 14.8815C24.1694 15.1381 24.2859 15.4189 24.355 15.7129C24.3759 15.8015 24.4213 15.8825 24.4861 15.9465C24.5509 16.0105 24.6324 16.055 24.7213 16.0748L24.9964 16.1359V16.5814L24.7213 16.6425C24.6324 16.6623 24.5509 16.7068 24.4861 16.7708C24.4213 16.8348 24.3759 16.9158 24.355 17.0045C24.2859 17.2984 24.1694 17.5792 24.0103 17.8358C23.9623 17.9132 23.9371 18.0027 23.9377 18.0938C23.9382 18.1849 23.9645 18.274 24.0134 18.3509L24.1647 18.589L23.8499 18.9039L23.6118 18.7525C23.5349 18.7037 23.4459 18.6775 23.3549 18.6769C23.2638 18.6764 23.1745 18.7015 23.0971 18.7494C22.8405 18.9086 22.5598 19.025 22.2659 19.0941C22.1772 19.115 22.0962 19.1604 22.0322 19.2252C21.9682 19.29 21.9237 19.3715 21.9039 19.4605L21.8428 19.7355H21.3974L21.3363 19.4605C21.3165 19.3715 21.272 19.2899 21.208 19.2251C21.1439 19.1603 21.0629 19.1149 20.9742 19.094C20.6803 19.0249 20.3996 18.9085 20.143 18.7494C20.0656 18.7015 19.9763 18.6764 19.8853 18.6769C19.7943 18.6775 19.7052 18.7036 19.6284 18.7525L19.3903 18.9039L19.0754 18.589L19.2268 18.3509C19.2757 18.274 19.3019 18.1849 19.3025 18.0938C19.303 18.0027 19.2779 17.9132 19.2299 17.8358C19.0707 17.5791 18.9543 17.2983 18.8851 17.0044C18.8643 16.9157 18.8188 16.8347 18.754 16.7707C18.6892 16.7067 18.6077 16.6623 18.5188 16.6425L18.2438 16.5814L18.2437 16.1359ZM21.6203 18.4111C22.0263 18.4111 22.4231 18.2907 22.7606 18.0652C23.0982 17.8396 23.3613 17.519 23.5166 17.144C23.672 16.7689 23.7126 16.3561 23.6334 15.9579C23.5542 15.5597 23.3587 15.194 23.0717 14.9069C22.7846 14.6198 22.4189 14.4243 22.0207 14.3451C21.6226 14.2659 21.2099 14.3066 20.8348 14.4619C20.4598 14.6173 20.1392 14.8804 19.9137 15.218C19.6882 15.5555 19.5678 15.9524 19.5678 16.3584C19.5684 16.9026 19.7848 17.4244 20.1696 17.8093C20.5544 18.1941 21.0761 18.4105 21.6203 18.4111ZM21.6203 15.2745C21.8347 15.2745 22.0442 15.3381 22.2224 15.4572C22.4007 15.5763 22.5396 15.7456 22.6216 15.9436C22.7036 16.1417 22.7251 16.3596 22.6833 16.5699C22.6415 16.7801 22.5382 16.9732 22.3867 17.1248C22.2351 17.2764 22.042 17.3796 21.8318 17.4215C21.6215 17.4633 21.4036 17.4418 21.2056 17.3598C21.0075 17.2778 20.8383 17.1388 20.7192 16.9606C20.6001 16.7823 20.5365 16.5728 20.5365 16.3584C20.5368 16.071 20.6511 15.7955 20.8543 15.5923C21.0575 15.3891 21.333 15.2748 21.6203 15.2745Z" fill="white"/>
</svg>
